<svg width="344" height="474" viewBox="0 0 344 474" fill="none" xmlns="http://www.w3.org/2000/svg">
<g filter="url(#filter0_d_1_151)">
<rect x="27" y="27" width="290" height="420" rx="20" fill="white"/>
</g>
<path d="M27 53H85C90.5228 53 95 57.4772 95 63V77C95 82.5228 90.5228 87 85 87H27V53Z" fill="#FFBC0D"/>
<path d="M65.504 72.814C67.112 71.614 68.384 70.528 69.32 69.556C70.256 68.572 70.724 67.654 70.724 66.802C70.724 66.514 70.658 66.292 70.526 66.136C70.406 65.98 70.244 65.902 70.04 65.902C69.8 65.902 69.608 66.028 69.464 66.28C69.332 66.52 69.284 66.892 69.32 67.396H65.45C65.486 66.28 65.726 65.362 66.17 64.642C66.626 63.922 67.214 63.394 67.934 63.058C68.654 62.722 69.446 62.554 70.31 62.554C71.846 62.554 72.968 62.926 73.676 63.67C74.396 64.402 74.756 65.344 74.756 66.496C74.756 67.708 74.366 68.848 73.586 69.916C72.818 70.972 71.852 71.866 70.688 72.598H74.81V75.82H65.504V72.814Z" fill="black"/>
<path d="M119.26 121.6C119.26 122.453 119.06 123.233 118.66 123.94C118.273 124.633 117.68 125.193 116.88 125.62C116.093 126.033 115.127 126.24 113.98 126.24H112.04V131H108.12V116.9H113.98C115.113 116.9 116.073 117.1 116.86 117.5C117.66 117.9 118.26 118.453 118.66 119.16C119.06 119.867 119.26 120.68 119.26 121.6ZM113.6 123.12C114.707 123.12 115.26 122.613 115.26 121.6C115.26 120.573 114.707 120.06 113.6 120.06H112.04V123.12H113.6ZM126.655 131.14C125.535 131.14 124.528 130.907 123.635 130.44C122.755 129.973 122.062 129.307 121.555 128.44C121.048 127.573 120.795 126.553 120.795 125.38C120.795 124.22 121.048 123.207 121.555 122.34C122.075 121.473 122.775 120.807 123.655 120.34C124.548 119.873 125.555 119.64 126.675 119.64C127.795 119.64 128.795 119.873 129.675 120.34C130.568 120.807 131.268 121.473 131.775 122.34C132.295 123.207 132.555 124.22 132.555 125.38C132.555 126.54 132.295 127.56 131.775 128.44C131.268 129.307 130.568 129.973 129.675 130.44C128.782 130.907 127.775 131.14 126.655 131.14ZM126.655 127.74C127.202 127.74 127.655 127.54 128.015 127.14C128.388 126.727 128.575 126.14 128.575 125.38C128.575 124.62 128.388 124.04 128.015 123.64C127.655 123.24 127.208 123.04 126.675 123.04C126.142 123.04 125.695 123.24 125.335 123.64C124.975 124.04 124.795 124.62 124.795 125.38C124.795 126.153 124.968 126.74 125.315 127.14C125.662 127.54 126.108 127.74 126.655 127.74ZM134.11 125.38C134.11 124.22 134.316 123.207 134.73 122.34C135.156 121.473 135.736 120.807 136.47 120.34C137.203 119.873 138.016 119.64 138.91 119.64C139.63 119.64 140.27 119.793 140.83 120.1C141.403 120.393 141.85 120.8 142.17 121.32V116.2H146.11V131H142.17V129.44C141.863 129.96 141.43 130.373 140.87 130.68C140.31 130.987 139.65 131.14 138.89 131.14C137.996 131.14 137.183 130.907 136.45 130.44C135.73 129.973 135.156 129.307 134.73 128.44C134.316 127.56 134.11 126.54 134.11 125.38ZM142.19 125.38C142.19 124.66 141.99 124.093 141.59 123.68C141.203 123.267 140.723 123.06 140.15 123.06C139.563 123.06 139.076 123.267 138.69 123.68C138.303 124.08 138.11 124.647 138.11 125.38C138.11 126.1 138.303 126.673 138.69 127.1C139.076 127.513 139.563 127.72 140.15 127.72C140.723 127.72 141.203 127.513 141.59 127.1C141.99 126.687 142.19 126.113 142.19 125.38ZM148.303 125.38C148.303 124.22 148.51 123.207 148.923 122.34C149.35 121.473 149.923 120.807 150.643 120.34C151.377 119.873 152.19 119.64 153.083 119.64C153.857 119.64 154.523 119.793 155.083 120.1C155.643 120.407 156.077 120.82 156.383 121.34V119.78H160.303V131H156.383V129.44C156.077 129.96 155.637 130.373 155.063 130.68C154.503 130.987 153.843 131.14 153.083 131.14C152.19 131.14 151.377 130.907 150.643 130.44C149.923 129.973 149.35 129.307 148.923 128.44C148.51 127.56 148.303 126.54 148.303 125.38ZM156.383 125.38C156.383 124.66 156.183 124.093 155.783 123.68C155.397 123.267 154.917 123.06 154.343 123.06C153.757 123.06 153.27 123.267 152.883 123.68C152.497 124.08 152.303 124.647 152.303 125.38C152.303 126.1 152.497 126.673 152.883 127.1C153.27 127.513 153.757 127.72 154.343 127.72C154.917 127.72 155.397 127.513 155.783 127.1C156.183 126.687 156.383 126.113 156.383 125.38ZM165.097 118.74C164.404 118.74 163.844 118.553 163.417 118.18C163.004 117.793 162.797 117.313 162.797 116.74C162.797 116.153 163.004 115.667 163.417 115.28C163.844 114.893 164.404 114.7 165.097 114.7C165.777 114.7 166.324 114.893 166.737 115.28C167.164 115.667 167.377 116.153 167.377 116.74C167.377 117.313 167.164 117.793 166.737 118.18C166.324 118.553 165.777 118.74 165.097 118.74ZM167.057 132.1C167.057 134.94 165.631 136.36 162.777 136.36H161.357V133.02H162.197C162.531 133.02 162.771 132.953 162.917 132.82C163.064 132.687 163.137 132.467 163.137 132.16V119.78H167.057V132.1ZM173.658 125.38C173.658 124.22 173.865 123.207 174.278 122.34C174.705 121.473 175.278 120.807 175.998 120.34C176.731 119.873 177.545 119.64 178.438 119.64C179.211 119.64 179.878 119.793 180.438 120.1C180.998 120.407 181.431 120.82 181.738 121.34V119.78H185.658V131H181.738V129.44C181.431 129.96 180.991 130.373 180.418 130.68C179.858 130.987 179.198 131.14 178.438 131.14C177.545 131.14 176.731 130.907 175.998 130.44C175.278 129.973 174.705 129.307 174.278 128.44C173.865 127.56 173.658 126.54 173.658 125.38ZM181.738 125.38C181.738 124.66 181.538 124.093 181.138 123.68C180.751 123.267 180.271 123.06 179.698 123.06C179.111 123.06 178.625 123.267 178.238 123.68C177.851 124.08 177.658 124.647 177.658 125.38C177.658 126.1 177.851 126.673 178.238 127.1C178.625 127.513 179.111 127.72 179.698 127.72C180.271 127.72 180.751 127.513 181.138 127.1C181.538 126.687 181.738 126.113 181.738 125.38ZM187.852 125.38C187.852 124.22 188.059 123.207 188.472 122.34C188.899 121.473 189.479 120.807 190.212 120.34C190.945 119.873 191.759 119.64 192.652 119.64C193.372 119.64 194.012 119.793 194.572 120.1C195.145 120.393 195.592 120.8 195.912 121.32V116.2H199.852V131H195.912V129.44C195.605 129.96 195.172 130.373 194.612 130.68C194.052 130.987 193.392 131.14 192.632 131.14C191.739 131.14 190.925 130.907 190.192 130.44C189.472 129.973 188.899 129.307 188.472 128.44C188.059 127.56 187.852 126.54 187.852 125.38ZM195.932 125.38C195.932 124.66 195.732 124.093 195.332 123.68C194.945 123.267 194.465 123.06 193.892 123.06C193.305 123.06 192.819 123.267 192.432 123.68C192.045 124.08 191.852 124.647 191.852 125.38C191.852 126.1 192.045 126.673 192.432 127.1C192.819 127.513 193.305 127.72 193.892 127.72C194.465 127.72 194.945 127.513 195.332 127.1C195.732 126.687 195.932 126.113 195.932 125.38ZM206.606 121.76C207.046 121.12 207.579 120.613 208.206 120.24C208.832 119.867 209.506 119.68 210.226 119.68V123.86H209.126C208.272 123.86 207.639 124.027 207.226 124.36C206.812 124.693 206.606 125.273 206.606 126.1V131H202.686V119.78H206.606V121.76ZM222.951 125.26C222.951 125.567 222.931 125.873 222.891 126.18H215.471C215.511 126.793 215.678 127.253 215.971 127.56C216.278 127.853 216.664 128 217.131 128C217.784 128 218.251 127.707 218.531 127.12H222.711C222.538 127.893 222.198 128.587 221.691 129.2C221.198 129.8 220.571 130.273 219.811 130.62C219.051 130.967 218.211 131.14 217.291 131.14C216.184 131.14 215.198 130.907 214.331 130.44C213.478 129.973 212.804 129.307 212.311 128.44C211.831 127.573 211.591 126.553 211.591 125.38C211.591 124.207 211.831 123.193 212.311 122.34C212.791 121.473 213.458 120.807 214.311 120.34C215.178 119.873 216.171 119.64 217.291 119.64C218.398 119.64 219.378 119.867 220.231 120.32C221.084 120.773 221.751 121.427 222.231 122.28C222.711 123.12 222.951 124.113 222.951 125.26ZM218.951 124.28C218.951 123.8 218.791 123.427 218.471 123.16C218.151 122.88 217.751 122.74 217.271 122.74C216.791 122.74 216.398 122.873 216.091 123.14C215.784 123.393 215.584 123.773 215.491 124.28H218.951ZM229.935 131.14C228.922 131.14 228.015 130.973 227.215 130.64C226.428 130.293 225.802 129.827 225.335 129.24C224.882 128.64 224.628 127.967 224.575 127.22H228.375C228.428 127.58 228.595 127.86 228.875 128.06C229.155 128.26 229.502 128.36 229.915 128.36C230.235 128.36 230.488 128.293 230.675 128.16C230.862 128.027 230.955 127.853 230.955 127.64C230.955 127.36 230.802 127.153 230.495 127.02C230.188 126.887 229.682 126.74 228.975 126.58C228.175 126.42 227.508 126.24 226.975 126.04C226.442 125.84 225.975 125.513 225.575 125.06C225.188 124.607 224.995 123.993 224.995 123.22C224.995 122.553 225.175 121.953 225.535 121.42C225.895 120.873 226.422 120.44 227.115 120.12C227.822 119.8 228.668 119.64 229.655 119.64C231.122 119.64 232.275 120 233.115 120.72C233.955 121.44 234.442 122.387 234.575 123.56H231.035C230.968 123.2 230.808 122.927 230.555 122.74C230.315 122.54 229.988 122.44 229.575 122.44C229.255 122.44 229.008 122.5 228.835 122.62C228.675 122.74 228.595 122.907 228.595 123.12C228.595 123.387 228.748 123.593 229.055 123.74C229.362 123.873 229.855 124.013 230.535 124.16C231.348 124.333 232.022 124.527 232.555 124.74C233.102 124.953 233.575 125.3 233.975 125.78C234.388 126.247 234.595 126.887 234.595 127.7C234.595 128.353 234.402 128.94 234.015 129.46C233.642 129.98 233.102 130.393 232.395 130.7C231.702 130.993 230.882 131.14 229.935 131.14Z" fill="black"/>
<path d="M279.501 387.721L279.186 387.602C279.116 387.576 272.214 384.926 268.981 378.918C265.748 372.909 267.331 365.675 267.347 365.603L267.422 365.273L267.737 365.392C267.807 365.418 274.709 368.068 277.942 374.076C281.175 380.085 279.592 387.319 279.576 387.391L279.501 387.721ZM269.499 378.638C272.233 383.718 277.687 386.322 279.069 386.917C279.331 385.433 280.155 379.431 277.424 374.356C274.693 369.281 269.237 366.673 267.855 366.077C267.592 367.562 266.768 373.563 269.499 378.638Z" fill="#3F3D56"/>
<path d="M271.452 376.81C277.263 380.313 279.5 387.271 279.5 387.271C279.5 387.271 272.318 388.549 266.507 385.046C260.697 381.544 258.459 374.586 258.459 374.586C258.459 374.586 265.642 373.307 271.452 376.81Z" fill="#FFBC0D"/>
<path d="M177.908 290.545C178.189 290.109 178.56 289.737 178.995 289.454C179.43 289.171 179.92 288.984 180.432 288.904C180.945 288.823 181.468 288.853 181.969 288.99C182.469 289.127 182.935 289.368 183.336 289.698C183.462 289.803 183.581 289.916 183.692 290.038L198.162 287.927L198.967 277.024C199.029 276.187 199.42 275.409 200.053 274.862C200.687 274.314 201.512 274.041 202.347 274.102C203.182 274.164 203.958 274.556 204.505 275.191C205.051 275.826 205.324 276.653 205.262 277.489C205.261 277.509 205.259 277.528 205.257 277.548L203.847 292.847L203.84 292.881C203.656 293.469 203.289 293.983 202.791 294.345C202.293 294.707 201.692 294.898 201.077 294.891L184.057 294.597C183.991 294.698 183.92 294.795 183.844 294.889C183.515 295.29 183.104 295.618 182.64 295.849C182.176 296.081 181.668 296.212 181.15 296.233C180.631 296.254 180.115 296.166 179.633 295.973C179.151 295.78 178.716 295.487 178.355 295.114C178.282 295.039 178.212 294.961 178.147 294.881C177.656 294.276 177.369 293.53 177.326 292.752C177.283 291.973 177.487 291.201 177.908 290.545Z" fill="#FFB7B7"/>
<path d="M207.081 383.511L202.954 383.511L200.991 367.56L207.082 367.56L207.081 383.511Z" fill="#FFB7B7"/>
<path d="M208.134 387.52L194.826 387.52V387.351C194.826 385.974 195.372 384.654 196.343 383.681C197.315 382.708 198.632 382.161 200.006 382.161H200.006L208.134 382.161L208.134 387.52Z" fill="#2F2E41"/>
<path d="M235.92 379.762L232.014 381.097L225.016 366.635L230.781 364.664L235.92 379.762Z" fill="#FFB7B7"/>
<path d="M238.208 383.216L225.613 387.52L225.558 387.361C225.115 386.058 225.206 384.632 225.812 383.396C226.418 382.161 227.488 381.217 228.788 380.773L228.789 380.773L236.481 378.143L238.208 383.216Z" fill="#2F2E41"/>
<path d="M211.626 244.038C211.626 244.038 207.518 242.679 204.877 248.117C202.237 253.554 198.129 259.536 198.129 259.536L200.476 260.079C200.476 260.079 201.063 256.273 202.53 255.729L201.943 260.623C201.943 260.623 219.548 266.333 227.47 260.079L227.177 258.176C227.177 258.176 228.35 258.448 228.35 260.079L229.23 259.264C229.23 259.264 228.35 257.632 225.71 255.457C223.976 254.03 223.381 251.314 223.176 249.616C223.014 248.178 222.398 246.83 221.42 245.766C219.665 243.882 216.467 241.879 211.626 244.038Z" fill="#2F2E41"/>
<path d="M213.14 263.036C217.283 263.036 220.642 259.671 220.642 255.518C220.642 251.366 217.283 248 213.14 248C208.996 248 205.637 251.366 205.637 255.518C205.637 259.671 208.996 263.036 213.14 263.036Z" fill="#FFB7B7"/>
<path d="M203.136 269.227L201.772 268.771C201.772 268.771 199.044 269.911 199.044 271.961C199.044 274.011 198.589 282.213 198.589 282.213L204.728 282.896L203.136 269.227Z" fill="#CBCBCB"/>
<path d="M227.551 314.039C226.986 313.403 226.666 312.586 226.651 311.734C226.637 310.883 226.927 310.055 227.47 309.4L223.641 277.263C223.603 276.505 223.867 275.764 224.375 275.201C224.883 274.638 225.593 274.3 226.349 274.261C227.105 274.222 227.846 274.485 228.409 274.992C228.971 275.5 229.31 276.211 229.351 276.968C229.351 276.979 229.352 276.989 229.352 277L232.778 309.17C232.902 309.295 233.017 309.43 233.12 309.572C233.395 309.953 233.592 310.384 233.701 310.841C233.809 311.299 233.827 311.773 233.752 312.237C233.678 312.701 233.513 313.145 233.267 313.545C233.021 313.945 232.699 314.293 232.319 314.568C232.28 314.597 232.24 314.625 232.199 314.652C231.76 314.943 231.261 315.134 230.738 315.209C230.216 315.285 229.684 315.244 229.18 315.089C228.55 314.898 227.986 314.534 227.551 314.039Z" fill="#FFB7B7"/>
<path d="M224.044 282.213L230.183 281.529C230.183 281.529 229.728 273.328 229.728 271.277C229.728 269.227 227 268.088 227 268.088L225.636 268.544L224.044 282.213Z" fill="#CBCBCB"/>
<path d="M204.046 293.592C204.046 293.592 198.817 303.172 198.817 314.791C198.817 326.41 198.362 379.719 198.362 379.719C198.362 379.719 205.183 382.909 209.275 379.036L212.913 320.031L227.236 377.897C227.236 377.897 234.056 379.264 237.239 376.985L231.101 336.662C231.101 336.662 228.6 298.844 221.779 296.11C214.959 293.376 204.046 293.592 204.046 293.592Z" fill="#2F2E41"/>
<path d="M205.033 255.566C207.689 253.64 209.839 251.422 211.261 248.783C211.261 248.783 216.135 254.209 219.114 254.481C222.092 254.752 219.384 247.969 219.384 247.969L213.969 246.612L208.824 247.154L204.762 249.868L205.033 255.566Z" fill="#2F2E41"/>
<path d="M220.642 266.721C220.642 266.721 220.859 266.605 207.911 267.077L202.492 268.573L201.772 268.771C201.772 268.771 202.454 282.441 204.273 284.947C206.092 287.453 205.637 288.82 205.183 289.047C204.728 289.275 203.591 288.82 204.273 289.959C204.955 291.098 205.865 290.414 204.955 291.098C204.046 291.781 203.591 294.287 203.591 294.287L223.598 297.021C223.598 297.021 224.28 288.136 226.099 283.58C227.918 279.023 228.372 277.201 228.372 277.201L227.008 268.088L220.642 266.721Z" fill="#CBCBCB"/>
<path d="M182.605 227.862H181.455V196.279C181.455 191.431 179.533 186.782 176.112 183.354C172.691 179.926 168.051 178 163.213 178H96.4385C91.6006 178 86.9607 179.926 83.5398 183.354C80.1188 186.782 78.1969 191.431 78.1969 196.279V369.543C78.1969 374.391 80.1188 379.04 83.5397 382.468C86.9607 385.896 91.6005 387.822 96.4384 387.822H163.213C165.608 387.822 167.981 387.349 170.194 386.431C172.407 385.512 174.418 384.166 176.112 382.468C177.806 380.771 179.149 378.756 180.066 376.538C180.983 374.32 181.455 371.943 181.455 369.543V250.342H182.605L182.605 227.862Z" fill="#3F3D56"/>
<path d="M177.572 196.407V369.416C177.574 371.208 177.223 372.981 176.541 374.637C175.858 376.292 174.857 377.797 173.594 379.064C172.332 380.332 170.832 381.338 169.181 382.025C167.531 382.712 165.761 383.066 163.974 383.068H96.8541C93.2436 383.07 89.7799 381.635 87.2251 379.079C84.6703 376.522 83.2335 373.054 83.231 369.436V196.407C83.2297 194.616 83.5806 192.842 84.2636 191.186C84.9466 189.531 85.9483 188.026 87.2115 186.759C88.4747 185.491 89.9748 184.485 91.626 183.798C93.2771 183.112 95.0471 182.758 96.8349 182.756H104.993C104.592 183.741 104.439 184.81 104.548 185.867C104.656 186.925 105.022 187.94 105.614 188.823C106.207 189.706 107.006 190.429 107.943 190.929C108.88 191.429 109.925 191.69 110.986 191.69H149.241C150.302 191.69 151.347 191.429 152.284 190.929C153.221 190.429 154.02 189.706 154.612 188.823C155.205 187.94 155.571 186.925 155.679 185.867C155.788 184.81 155.635 183.741 155.234 182.756H163.949C167.559 182.753 171.022 184.187 173.577 186.742C176.132 189.298 177.569 192.766 177.572 196.383V196.408L177.572 196.407Z" fill="white"/>
<path d="M177.572 222.004V216.111H168.672V183.599C167.16 183.04 165.561 182.754 163.949 182.756H162.791V216.111H131.916V191.69H126.035V216.111H100.159V182.756H96.8541C95.9897 182.755 95.1271 182.837 94.2782 183.001V216.111H83.231V222.004H94.2782V235.634L83.2312 242.025V248.832L94.2782 242.441V282.996H83.231V288.889H94.2782V347.524H83.231V353.417H94.2782V382.823C95.1271 382.987 95.9897 383.069 96.8541 383.068H100.159V353.417H126.035V383.068H131.916V353.417H162.791V383.068H163.949C165.561 383.07 167.16 382.784 168.672 382.225V353.417H177.572V347.524H168.672V321.89H177.493V315.997H168.672V288.889H177.572V282.996H168.672V247.049H177.572V241.156H168.672V222.004L177.572 222.004ZM117.84 222.004L117.84 222.004L100.159 232.234L100.159 232.234V222.004H117.84ZM100.159 239.038L100.159 239.037L126.035 224.066V282.996H100.159V239.038ZM100.159 347.524V288.889H126.035V347.524H100.159ZM162.791 347.524H131.916V321.89H162.791V347.524ZM162.791 315.997H131.916V288.889H162.791V315.997ZM162.791 282.996H131.916V247.049H162.791V282.996ZM162.791 241.156H131.916V222.004H162.791V241.156Z" fill="#E5E5E5"/>
<path d="M182.492 241.265C182.492 259.979 148.677 301.668 148.677 301.668C148.677 301.668 114.861 259.979 114.861 241.265C114.861 232.278 118.424 223.659 124.766 217.305C131.107 210.95 139.708 207.38 148.677 207.38C157.645 207.38 166.246 210.95 172.587 217.305C178.929 223.659 182.492 232.278 182.492 241.265Z" fill="#FFBC0D"/>
<path d="M168.672 239.792C168.672 243.754 167.499 247.628 165.302 250.923C163.105 254.218 159.982 256.786 156.329 258.303C152.675 259.819 148.655 260.216 144.776 259.443C140.897 258.67 137.335 256.761 134.538 253.959C131.742 251.157 129.838 247.587 129.066 243.7C128.295 239.814 128.691 235.785 130.204 232.124C131.717 228.463 134.28 225.334 137.568 223.132C140.856 220.931 144.722 219.755 148.677 219.755C151.301 219.754 153.901 220.271 156.326 221.276C158.751 222.282 160.955 223.756 162.812 225.615C164.668 227.474 166.142 229.681 167.147 232.11C168.153 234.539 168.671 237.143 168.672 239.773V239.792Z" fill="white"/>
<path d="M148.607 247.701C152.721 247.701 156.056 244.359 156.056 240.236C156.056 236.114 152.721 232.772 148.607 232.772C144.493 232.772 141.158 236.114 141.158 240.236C141.158 244.359 144.493 247.701 148.607 247.701Z" fill="#FFBC0D"/>
<path d="M159.418 257.285C156.207 259.331 152.48 260.418 148.675 260.417C144.87 260.417 141.143 259.329 137.932 257.282C138.6 254.943 140.01 252.886 141.948 251.421C143.887 249.957 146.249 249.165 148.677 249.165C151.104 249.165 153.466 249.958 155.404 251.423C157.342 252.888 158.751 254.946 159.418 257.285Z" fill="#FFBC0D"/>
<path d="M148.677 326.124C153.711 326.124 157.792 322.034 157.792 316.99C157.792 311.945 153.711 307.855 148.677 307.855C143.642 307.855 139.561 311.945 139.561 316.99C139.561 322.034 143.642 326.124 148.677 326.124Z" fill="#FFBC0D"/>
<path d="M289.706 388H53.294C53.2161 388 53.1413 387.969 53.0861 387.914C53.031 387.858 53 387.783 53 387.705C53 387.627 53.031 387.552 53.0861 387.497C53.1413 387.442 53.2161 387.411 53.294 387.411H289.706C289.784 387.411 289.859 387.442 289.914 387.497C289.969 387.552 290 387.627 290 387.705C290 387.783 289.969 387.858 289.914 387.914C289.859 387.969 289.784 388 289.706 388Z" fill="#CBCBCB"/>
<defs>
<filter id="filter0_d_1_151" x="0" y="0" width="344" height="474" filterUnits="userSpaceOnUse" color-interpolation-filters="sRGB">
<feFlood flood-opacity="0" result="BackgroundImageFix"/>
<feColorMatrix in="SourceAlpha" type="matrix" values="0 0 0 0 0 0 0 0 0 0 0 0 0 0 0 0 0 0 127 0" result="hardAlpha"/>
<feMorphology radius="5" operator="dilate" in="SourceAlpha" result="effect1_dropShadow_1_151"/>
<feOffset/>
<feGaussianBlur stdDeviation="11"/>
<feComposite in2="hardAlpha" operator="out"/>
<feColorMatrix type="matrix" values="0 0 0 0 0 0 0 0 0 0 0 0 0 0 0 0 0 0 0.25 0"/>
<feBlend mode="normal" in2="BackgroundImageFix" result="effect1_dropShadow_1_151"/>
<feBlend mode="normal" in="SourceGraphic" in2="effect1_dropShadow_1_151" result="shape"/>
</filter>
</defs>
</svg>
