<svg width="344" height="474" viewBox="0 0 344 474" fill="none" xmlns="http://www.w3.org/2000/svg">
<g filter="url(#filter0_d_1_321)">
<rect x="27" y="27" width="290" height="420" rx="20" fill="white"/>
</g>
<path d="M27 53H85C90.5228 53 95 57.4772 95 63V77C95 82.5228 90.5228 87 85 87H27V53Z" fill="#FFBC0D"/>
<path d="M65.936 74.02V70.69L71.3 63.04H75.602V70.564H76.898V74.02H75.602V76H71.57V74.02H65.936ZM71.894 67.594L69.95 70.564H71.894V67.594Z" fill="black"/>
<path d="M69.64 132.92C69.64 131.533 69.9267 130.3 70.5 129.22C71.0867 128.127 71.9133 127.28 72.98 126.68C74.0467 126.067 75.2733 125.76 76.66 125.76C78.42 125.76 79.9 126.233 81.1 127.18C82.3 128.113 83.0733 129.387 83.42 131H79.2C78.9467 130.467 78.5933 130.06 78.14 129.78C77.7 129.5 77.1867 129.36 76.6 129.36C75.6933 129.36 74.9667 129.687 74.42 130.34C73.8867 130.98 73.62 131.84 73.62 132.92C73.62 134.013 73.8867 134.887 74.42 135.54C74.9667 136.18 75.6933 136.5 76.6 136.5C77.1867 136.5 77.7 136.36 78.14 136.08C78.5933 135.8 78.9467 135.393 79.2 134.86H83.42C83.0733 136.473 82.3 137.753 81.1 138.7C79.9 139.633 78.42 140.1 76.66 140.1C75.2733 140.1 74.0467 139.8 72.98 139.2C71.9133 138.587 71.0867 137.74 70.5 136.66C69.9267 135.567 69.64 134.32 69.64 132.92ZM89.5963 136.74H94.3763V140H85.2763V136.9L89.7363 132.04H85.3163V128.78H94.2163V131.88L89.5963 136.74ZM107.333 134.26C107.333 134.567 107.313 134.873 107.273 135.18H99.853C99.893 135.793 100.06 136.253 100.353 136.56C100.66 136.853 101.046 137 101.513 137C102.166 137 102.633 136.707 102.913 136.12H107.093C106.92 136.893 106.58 137.587 106.073 138.2C105.58 138.8 104.953 139.273 104.193 139.62C103.433 139.967 102.593 140.14 101.673 140.14C100.566 140.14 99.5796 139.907 98.713 139.44C97.8596 138.973 97.1863 138.307 96.693 137.44C96.213 136.573 95.973 135.553 95.973 134.38C95.973 133.207 96.213 132.193 96.693 131.34C97.173 130.473 97.8396 129.807 98.693 129.34C99.5596 128.873 100.553 128.64 101.673 128.64C102.78 128.64 103.76 128.867 104.613 129.32C105.466 129.773 106.133 130.427 106.613 131.28C107.093 132.12 107.333 133.113 107.333 134.26ZM103.333 133.28C103.333 132.8 103.173 132.427 102.853 132.16C102.533 131.88 102.133 131.74 101.653 131.74C101.173 131.74 100.78 131.873 100.473 132.14C100.166 132.393 99.9663 132.773 99.873 133.28H103.333ZM116.557 140L113.457 135.4V140H109.537V125.2H113.457V133.18L116.557 128.78H121.257L116.837 134.42L121.337 140H116.557ZM122.446 134.38C122.446 133.22 122.653 132.207 123.066 131.34C123.493 130.473 124.066 129.807 124.786 129.34C125.52 128.873 126.333 128.64 127.226 128.64C128 128.64 128.666 128.793 129.226 129.1C129.786 129.407 130.22 129.82 130.526 130.34V128.78H134.446V140H130.526V138.44C130.22 138.96 129.78 139.373 129.206 139.68C128.646 139.987 127.986 140.14 127.226 140.14C126.333 140.14 125.52 139.907 124.786 139.44C124.066 138.973 123.493 138.307 123.066 137.44C122.653 136.56 122.446 135.54 122.446 134.38ZM130.526 134.38C130.526 133.66 130.326 133.093 129.926 132.68C129.54 132.267 129.06 132.06 128.486 132.06C127.9 132.06 127.413 132.267 127.026 132.68C126.64 133.08 126.446 133.647 126.446 134.38C126.446 135.1 126.64 135.673 127.026 136.1C127.413 136.513 127.9 136.72 128.486 136.72C129.06 136.72 129.54 136.513 129.926 136.1C130.326 135.687 130.526 135.113 130.526 134.38ZM139.24 127.74C138.547 127.74 137.987 127.553 137.56 127.18C137.147 126.793 136.94 126.313 136.94 125.74C136.94 125.153 137.147 124.667 137.56 124.28C137.987 123.893 138.547 123.7 139.24 123.7C139.92 123.7 140.467 123.893 140.88 124.28C141.307 124.667 141.52 125.153 141.52 125.74C141.52 126.313 141.307 126.793 140.88 127.18C140.467 127.553 139.92 127.74 139.24 127.74ZM141.2 141.1C141.2 143.94 139.773 145.36 136.92 145.36H135.5V142.02H136.34C136.673 142.02 136.913 141.953 137.06 141.82C137.207 141.687 137.28 141.467 137.28 141.16V128.78H141.2V141.1ZM155.781 128.68C157.074 128.68 158.101 129.113 158.861 129.98C159.621 130.833 160.001 131.993 160.001 133.46V140H156.081V133.98C156.081 133.34 155.914 132.84 155.581 132.48C155.248 132.107 154.801 131.92 154.241 131.92C153.654 131.92 153.194 132.107 152.861 132.48C152.528 132.84 152.361 133.34 152.361 133.98V140H148.441V128.78H152.361V130.38C152.708 129.873 153.174 129.467 153.761 129.16C154.348 128.84 155.021 128.68 155.781 128.68ZM162.112 134.38C162.112 133.22 162.319 132.207 162.732 131.34C163.159 130.473 163.732 129.807 164.452 129.34C165.185 128.873 165.999 128.64 166.892 128.64C167.665 128.64 168.332 128.793 168.892 129.1C169.452 129.407 169.885 129.82 170.192 130.34V128.78H174.112V140H170.192V138.44C169.885 138.96 169.445 139.373 168.872 139.68C168.312 139.987 167.652 140.14 166.892 140.14C165.999 140.14 165.185 139.907 164.452 139.44C163.732 138.973 163.159 138.307 162.732 137.44C162.319 136.56 162.112 135.54 162.112 134.38ZM170.192 134.38C170.192 133.66 169.992 133.093 169.592 132.68C169.205 132.267 168.725 132.06 168.152 132.06C167.565 132.06 167.079 132.267 166.692 132.68C166.305 133.08 166.112 133.647 166.112 134.38C166.112 135.1 166.305 135.673 166.692 136.1C167.079 136.513 167.565 136.72 168.152 136.72C168.725 136.72 169.205 136.513 169.592 136.1C169.992 135.687 170.192 135.113 170.192 134.38ZM180.734 134.38C180.734 133.22 180.941 132.207 181.354 131.34C181.781 130.473 182.361 129.807 183.094 129.34C183.827 128.873 184.641 128.64 185.534 128.64C186.254 128.64 186.894 128.793 187.454 129.1C188.027 129.393 188.474 129.8 188.794 130.32V125.2H192.734V140H188.794V138.44C188.487 138.96 188.054 139.373 187.494 139.68C186.934 139.987 186.274 140.14 185.514 140.14C184.621 140.14 183.807 139.907 183.074 139.44C182.354 138.973 181.781 138.307 181.354 137.44C180.941 136.56 180.734 135.54 180.734 134.38ZM188.814 134.38C188.814 133.66 188.614 133.093 188.214 132.68C187.827 132.267 187.347 132.06 186.774 132.06C186.187 132.06 185.701 132.267 185.314 132.68C184.927 133.08 184.734 133.647 184.734 134.38C184.734 135.1 184.927 135.673 185.314 136.1C185.701 136.513 186.187 136.72 186.774 136.72C187.347 136.72 187.827 136.513 188.214 136.1C188.614 135.687 188.814 135.113 188.814 134.38ZM200.788 140.14C199.668 140.14 198.661 139.907 197.768 139.44C196.888 138.973 196.194 138.307 195.688 137.44C195.181 136.573 194.928 135.553 194.928 134.38C194.928 133.22 195.181 132.207 195.688 131.34C196.208 130.473 196.908 129.807 197.788 129.34C198.681 128.873 199.688 128.64 200.808 128.64C201.928 128.64 202.928 128.873 203.808 129.34C204.701 129.807 205.401 130.473 205.908 131.34C206.428 132.207 206.688 133.22 206.688 134.38C206.688 135.54 206.428 136.56 205.908 137.44C205.401 138.307 204.701 138.973 203.808 139.44C202.914 139.907 201.908 140.14 200.788 140.14ZM200.788 136.74C201.334 136.74 201.788 136.54 202.148 136.14C202.521 135.727 202.708 135.14 202.708 134.38C202.708 133.62 202.521 133.04 202.148 132.64C201.788 132.24 201.341 132.04 200.808 132.04C200.274 132.04 199.828 132.24 199.468 132.64C199.108 133.04 198.928 133.62 198.928 134.38C198.928 135.153 199.101 135.74 199.448 136.14C199.794 136.54 200.241 136.74 200.788 136.74ZM213.662 140.14C212.649 140.14 211.742 139.973 210.942 139.64C210.156 139.293 209.529 138.827 209.062 138.24C208.609 137.64 208.356 136.967 208.302 136.22H212.102C212.156 136.58 212.322 136.86 212.602 137.06C212.882 137.26 213.229 137.36 213.642 137.36C213.962 137.36 214.216 137.293 214.402 137.16C214.589 137.027 214.682 136.853 214.682 136.64C214.682 136.36 214.529 136.153 214.222 136.02C213.916 135.887 213.409 135.74 212.702 135.58C211.902 135.42 211.236 135.24 210.702 135.04C210.169 134.84 209.702 134.513 209.302 134.06C208.916 133.607 208.722 132.993 208.722 132.22C208.722 131.553 208.902 130.953 209.262 130.42C209.622 129.873 210.149 129.44 210.842 129.12C211.549 128.8 212.396 128.64 213.382 128.64C214.849 128.64 216.002 129 216.842 129.72C217.682 130.44 218.169 131.387 218.302 132.56H214.762C214.696 132.2 214.536 131.927 214.282 131.74C214.042 131.54 213.716 131.44 213.302 131.44C212.982 131.44 212.736 131.5 212.562 131.62C212.402 131.74 212.322 131.907 212.322 132.12C212.322 132.387 212.476 132.593 212.782 132.74C213.089 132.873 213.582 133.013 214.262 133.16C215.076 133.333 215.749 133.527 216.282 133.74C216.829 133.953 217.302 134.3 217.702 134.78C218.116 135.247 218.322 135.887 218.322 136.7C218.322 137.353 218.129 137.94 217.742 138.46C217.369 138.98 216.829 139.393 216.122 139.7C215.429 139.993 214.609 140.14 213.662 140.14ZM227.47 136.66V140H225.77C222.903 140 221.47 138.58 221.47 135.74V132.04H220.09V128.78H221.47V126.06H225.41V128.78H227.45V132.04H225.41V135.8C225.41 136.107 225.476 136.327 225.61 136.46C225.756 136.593 225.996 136.66 226.33 136.66H227.47ZM229.228 134.38C229.228 133.22 229.434 132.207 229.848 131.34C230.274 130.473 230.848 129.807 231.568 129.34C232.301 128.873 233.114 128.64 234.008 128.64C234.781 128.64 235.448 128.793 236.008 129.1C236.568 129.407 237.001 129.82 237.308 130.34V128.78H241.228V140H237.308V138.44C237.001 138.96 236.561 139.373 235.988 139.68C235.428 139.987 234.768 140.14 234.008 140.14C233.114 140.14 232.301 139.907 231.568 139.44C230.848 138.973 230.274 138.307 229.848 137.44C229.434 136.56 229.228 135.54 229.228 134.38ZM237.308 134.38C237.308 133.66 237.108 133.093 236.708 132.68C236.321 132.267 235.841 132.06 235.268 132.06C234.681 132.06 234.194 132.267 233.808 132.68C233.421 133.08 233.228 133.647 233.228 134.38C233.228 135.1 233.421 135.673 233.808 136.1C234.194 136.513 234.681 136.72 235.268 136.72C235.841 136.72 236.321 136.513 236.708 136.1C237.108 135.687 237.308 135.113 237.308 134.38ZM260.641 128.78L257.781 140H253.381L251.821 133.2L250.201 140H245.821L242.981 128.78H246.881L248.141 136.22L249.801 128.78H254.001L255.721 136.24L256.961 128.78H260.641ZM273.077 134.26C273.077 134.567 273.057 134.873 273.017 135.18H265.597C265.637 135.793 265.803 136.253 266.097 136.56C266.403 136.853 266.79 137 267.257 137C267.91 137 268.377 136.707 268.657 136.12H272.837C272.637 137 272.217 137.773 271.577 138.44C270.95 139.107 270.177 139.587 269.257 139.88L268.477 140.26C267.957 140.527 267.583 140.753 267.357 140.94C267.143 141.14 267.037 141.347 267.037 141.56C267.037 141.72 267.103 141.847 267.237 141.94C267.383 142.047 267.577 142.1 267.817 142.1C268.283 142.1 268.823 142 269.437 141.8V143.9C268.77 144.113 268.07 144.22 267.337 144.22C266.39 144.22 265.637 144.013 265.077 143.6C264.517 143.187 264.237 142.613 264.237 141.88C264.237 141.493 264.317 141.133 264.477 140.8C264.65 140.467 264.93 140.14 265.317 139.82C264.21 139.447 263.33 138.787 262.677 137.84C262.037 136.893 261.717 135.74 261.717 134.38C261.717 133.207 261.957 132.193 262.437 131.34C262.917 130.473 263.583 129.807 264.437 129.34C265.303 128.873 266.297 128.64 267.417 128.64C268.523 128.64 269.503 128.867 270.357 129.32C271.21 129.773 271.877 130.427 272.357 131.28C272.837 132.12 273.077 133.113 273.077 134.26ZM269.077 133.28C269.077 132.8 268.917 132.427 268.597 132.16C268.277 131.88 267.877 131.74 267.397 131.74C266.917 131.74 266.523 131.873 266.217 132.14C265.91 132.393 265.71 132.773 265.617 133.28H269.077Z" fill="black"/>
<g clip-path="url(#clip0_1_321)">
<path d="M121.888 325.924C121.046 332.534 117.949 338.582 114.645 344.408C114.535 344.606 114.423 344.802 114.308 345H79.9663C79.2717 344.819 78.5861 344.621 77.9034 344.408C74.0247 343.225 70.3628 341.421 67.0602 339.065C54.426 329.947 49.5644 312.718 51.7603 297.28C53.1257 287.689 57.3281 277.896 65.5115 272.73C69.8323 269.998 75.3824 269.11 80.3563 270.125C80.4865 270.149 80.6165 270.179 80.7494 270.205C85.0288 271.17 88.8412 273.568 91.0105 277.431C94.9115 284.373 92.5886 292.973 90.6707 300.699C88.7585 308.426 87.7211 317.674 93.2714 323.372C91.439 317.97 93.2477 311.525 97.6246 307.872C100.932 305.116 105.536 304.083 109.736 304.938C110.138 305.024 110.534 305.122 110.924 305.24C111.867 305.517 112.776 305.898 113.634 306.377C120.18 310.039 122.831 318.473 121.888 325.924Z" fill="#F2F2F2"/>
<path d="M101.526 344.408C102.477 344.63 103.432 344.825 104.392 345H99.1998C98.52 344.816 97.8432 344.621 97.1725 344.408C95.6977 343.946 94.2456 343.416 92.8162 342.818C87.0828 340.409 81.8016 336.791 77.8059 331.978C75.8518 329.646 74.256 327.034 73.0714 324.231C71.7869 321.061 70.9705 317.722 70.6481 314.317C69.924 307.33 70.6628 300.152 72.0429 293.29C73.4672 286.178 75.7663 279.27 78.8876 272.724C79.263 271.94 79.6511 271.16 80.052 270.386C80.0796 270.322 80.1213 270.265 80.1741 270.22C80.2268 270.175 80.2892 270.143 80.3564 270.125C80.4928 270.099 80.6341 270.128 80.7494 270.205C80.8878 270.285 80.9905 270.415 81.0361 270.568C81.0818 270.721 81.067 270.886 80.9948 271.028C77.7765 277.315 75.337 283.971 73.7304 290.85C72.1582 297.561 71.2657 304.583 71.5701 311.484C71.8597 317.931 73.5414 324.272 77.3567 329.544C80.8411 334.358 85.6524 338.153 90.975 340.737C94.344 342.352 97.883 343.583 101.526 344.408Z" fill="white"/>
<path d="M112.922 345H111.391C111.219 344.805 111.054 344.606 110.891 344.408C107.404 340.164 105.042 335.108 104.023 329.707C102.785 322.967 103.748 316.007 106.768 309.858C107.611 308.134 108.604 306.488 109.736 304.938C110.138 305.024 110.534 305.122 110.924 305.24C107.947 309.19 105.945 313.79 105.081 318.662C104.31 323.228 104.566 327.909 105.831 332.363C107.096 336.817 109.338 340.932 112.393 344.408C112.564 344.606 112.741 344.805 112.922 345Z" fill="white"/>
<path d="M250.831 339.966C251.053 341.71 251.87 343.306 252.742 344.844C252.771 344.896 252.801 344.948 252.831 345H261.895C262.078 344.952 262.259 344.9 262.439 344.844C263.463 344.532 264.429 344.055 265.301 343.434C268.635 341.027 269.918 336.48 269.339 332.406C268.978 329.875 267.869 327.29 265.71 325.927C264.537 325.211 263.138 324.966 261.792 325.239C261.757 325.246 261.723 325.253 261.688 325.26C261.128 325.369 260.597 325.595 260.13 325.924C259.663 326.252 259.271 326.676 258.98 327.167C257.95 329 258.563 331.269 259.07 333.308C259.574 335.347 259.848 337.788 258.383 339.292C258.598 338.663 258.642 337.988 258.51 337.337C258.378 336.685 258.075 336.081 257.632 335.585C257.19 335.09 256.624 334.722 255.992 334.518C255.36 334.314 254.686 334.283 254.038 334.427C253.932 334.45 253.827 334.475 253.724 334.507C253.476 334.58 253.236 334.68 253.009 334.807C251.282 335.773 250.582 337.999 250.831 339.966Z" fill="#F2F2F2"/>
<path d="M256.205 344.844C255.954 344.902 255.702 344.954 255.448 345H256.819C256.998 344.952 257.177 344.9 257.354 344.844C257.743 344.722 258.126 344.582 258.503 344.424C260.033 343.802 261.392 342.821 262.465 341.563C262.981 340.948 263.402 340.259 263.714 339.519C264.053 338.682 264.269 337.801 264.354 336.902C264.509 335.044 264.385 333.174 263.986 331.353C263.61 329.476 263.003 327.653 262.179 325.925C262.08 325.718 261.978 325.512 261.872 325.308C261.865 325.291 261.854 325.276 261.84 325.264C261.826 325.252 261.809 325.244 261.792 325.239C261.756 325.232 261.718 325.24 261.688 325.26C261.651 325.281 261.624 325.316 261.612 325.356C261.6 325.396 261.604 325.44 261.623 325.478C262.473 327.137 263.116 328.893 263.54 330.709C263.977 332.49 264.169 334.322 264.111 336.154C264.079 337.859 263.548 339.517 262.583 340.921C261.645 342.186 260.411 343.2 258.989 343.875C258.1 344.301 257.166 344.626 256.205 344.844Z" fill="white"/>
<path d="M253.197 345H253.601C253.646 344.948 253.69 344.896 253.733 344.844C254.653 343.724 255.277 342.389 255.546 340.964C255.872 339.185 255.618 337.348 254.821 335.725C254.599 335.27 254.337 334.836 254.038 334.427C253.932 334.45 253.827 334.475 253.724 334.507C254.51 335.549 255.038 336.763 255.266 338.049C255.47 339.254 255.402 340.489 255.068 341.665C254.735 342.84 254.143 343.926 253.337 344.844C253.292 344.896 253.245 344.948 253.197 345Z" fill="white"/>
<path d="M169.139 299.909H140.773L140.472 291.173C140.459 290.794 140.528 290.417 140.674 290.067C140.821 289.718 141.041 289.405 141.32 289.149C141.599 288.893 141.93 288.7 142.29 288.585C142.65 288.469 143.031 288.433 143.407 288.479L159.914 290.504H159.916C162.363 290.51 164.708 291.488 166.437 293.223C168.165 294.959 169.137 297.309 169.139 299.761V299.909Z" fill="#FFBC0D"/>
<path d="M156.496 268.921H136.712C136.449 268.92 136.188 268.972 135.945 269.073C135.702 269.174 135.481 269.322 135.295 269.508C135.109 269.695 134.962 269.916 134.861 270.159C134.76 270.403 134.708 270.664 134.709 270.927V290.744C134.708 291.008 134.76 291.269 134.861 291.512C134.962 291.756 135.109 291.977 135.295 292.163C135.481 292.35 135.702 292.497 135.945 292.598C136.188 292.699 136.449 292.751 136.712 292.751H156.496C156.759 292.751 157.02 292.699 157.263 292.598C157.506 292.497 157.727 292.35 157.913 292.163C158.099 291.977 158.246 291.756 158.347 291.512C158.448 291.269 158.499 291.008 158.499 290.744V270.927C158.499 270.664 158.448 270.403 158.347 270.159C158.246 269.916 158.099 269.694 157.913 269.508C157.727 269.322 157.506 269.174 157.263 269.073C157.02 268.972 156.759 268.92 156.496 268.921Z" fill="#CCCCCC"/>
<path d="M152.04 283.739L142.699 285.561C142.145 285.668 141.571 285.551 141.103 285.235C140.635 284.919 140.312 284.43 140.203 283.875L139.485 280.182C139.378 279.627 139.495 279.052 139.81 278.583C140.126 278.115 140.614 277.79 141.168 277.682L150.508 275.86C151.062 275.752 151.636 275.869 152.104 276.185C152.572 276.501 152.896 276.99 153.005 277.545L153.723 281.238C153.83 281.793 153.713 282.368 153.398 282.837C153.082 283.306 152.594 283.63 152.04 283.739Z" fill="#3F3D56"/>
<path d="M150.171 279.375L143.043 280.766C142.912 280.791 142.777 280.764 142.667 280.69C142.557 280.615 142.481 280.5 142.456 280.369C142.43 280.239 142.458 280.103 142.532 279.993C142.606 279.883 142.721 279.807 142.851 279.781L149.98 278.391C150.11 278.365 150.245 278.393 150.356 278.467C150.466 278.541 150.542 278.657 150.567 278.787C150.593 278.918 150.565 279.053 150.491 279.163C150.417 279.274 150.302 279.35 150.171 279.375Z" fill="white"/>
<path d="M148.786 281.435L145.099 282.154C144.968 282.179 144.833 282.152 144.723 282.077C144.613 282.003 144.537 281.888 144.511 281.757C144.486 281.627 144.513 281.491 144.588 281.381C144.662 281.271 144.777 281.194 144.907 281.169L148.594 280.45C148.659 280.437 148.725 280.437 148.79 280.451C148.854 280.464 148.915 280.489 148.97 280.526C149.025 280.563 149.071 280.61 149.108 280.665C149.144 280.72 149.169 280.782 149.182 280.846C149.194 280.911 149.194 280.978 149.181 281.042C149.168 281.107 149.142 281.168 149.105 281.223C149.069 281.277 149.021 281.324 148.967 281.361C148.912 281.397 148.85 281.422 148.786 281.435Z" fill="white"/>
<path d="M158.499 270.927V273.561H134.709V270.927C134.708 270.664 134.76 270.403 134.861 270.159C134.962 269.916 135.109 269.695 135.295 269.508C135.481 269.322 135.702 269.174 135.945 269.073C136.188 268.972 136.449 268.92 136.712 268.921H156.496C156.759 268.92 157.02 268.972 157.263 269.073C157.506 269.174 157.727 269.322 157.913 269.508C158.099 269.695 158.246 269.916 158.347 270.159C158.448 270.403 158.499 270.664 158.499 270.927Z" fill="#B3B3B3"/>
<path d="M206.007 274.386C205.87 273.942 205.637 273.533 205.325 273.189C205.013 272.845 204.629 272.574 204.201 272.394C203.773 272.214 203.311 272.131 202.847 272.149C202.383 272.168 201.929 272.288 201.517 272.502L174.299 262.72L173.1 269.531L200.231 277.004C200.635 277.675 201.271 278.173 202.017 278.405C202.763 278.638 203.568 278.588 204.28 278.265C204.992 277.942 205.561 277.369 205.879 276.654C206.198 275.939 206.243 275.132 206.007 274.386Z" fill="#FFB8B8"/>
<path opacity="0.2" d="M206.007 274.386C205.87 273.942 205.637 273.533 205.325 273.189C205.013 272.845 204.629 272.574 204.201 272.394C203.773 272.214 203.311 272.131 202.847 272.149C202.383 272.168 201.929 272.288 201.517 272.502L174.299 262.72L173.1 269.531L200.231 277.004C200.635 277.675 201.271 278.173 202.017 278.405C202.763 278.638 203.568 278.588 204.28 278.265C204.992 277.942 205.561 277.369 205.879 276.654C206.198 275.939 206.243 275.132 206.007 274.386Z" fill="black"/>
<path d="M179.13 263.961L176.56 270.687C176.487 270.879 176.373 271.052 176.227 271.195C176.081 271.339 175.906 271.449 175.713 271.519C175.521 271.588 175.316 271.615 175.112 271.598C174.908 271.581 174.71 271.521 174.532 271.42L168.286 267.898C167.31 267.518 166.525 266.766 166.103 265.807C165.681 264.848 165.655 263.76 166.032 262.782C166.409 261.804 167.158 261.015 168.114 260.59C169.071 260.164 170.156 260.135 171.134 260.51L178.109 262.06C178.309 262.104 178.497 262.191 178.66 262.315C178.823 262.438 178.957 262.596 179.054 262.776C179.151 262.957 179.208 263.156 179.221 263.361C179.234 263.565 179.203 263.77 179.13 263.961Z" fill="#FFBC0D"/>
<path d="M208.149 280.614L198.397 285.054L199.677 289.883C202.15 299.207 202.806 308.921 201.61 318.494L208.741 319.985L214.651 304.888L212.582 287.718L208.149 280.614Z" fill="#FFBC0D"/>
<path d="M227.285 302.964C220.878 302.964 215.656 307.63 215.402 313.473H239.169C238.915 307.63 233.693 302.964 227.285 302.964Z" fill="#3F3D56"/>
<path d="M222.297 303.971C221.964 277.595 206.967 280.022 206.967 280.022C206.967 280.022 207.248 288.231 207.383 288.487C216.939 306.598 201.167 327.83 181.092 323.924C180.713 323.85 180.349 323.776 180.001 323.7C177.457 323.168 175.211 321.685 173.72 319.554C172.229 317.422 171.604 314.802 171.973 312.225C173.951 296.318 164.114 296.599 164.114 296.599H149.732L142.263 289.866C141.999 289.628 141.681 289.459 141.337 289.373C140.993 289.286 140.633 289.286 140.289 289.371C139.944 289.456 139.626 289.625 139.362 289.862C139.098 290.099 138.895 290.397 138.773 290.73L137.812 293.343C137.812 293.343 123.626 294.823 124.808 308.736H129.194C129.183 309.132 129.199 309.527 129.241 309.921L161.972 309.654C163.891 309.638 165.584 311.196 165.592 313.117C165.594 313.585 165.502 314.049 165.321 314.48C165.14 314.911 164.874 315.302 164.539 315.628C164.204 315.954 163.806 316.209 163.371 316.377C162.935 316.546 162.47 316.625 162.003 316.609L156.726 316.433C155.101 323.686 159.09 328.57 163.486 331.642C167.625 334.491 172.537 336.002 177.559 335.971H191.895C210.514 335.971 213.765 320.282 213.765 320.282C223.517 316.137 222.297 303.971 222.297 303.971Z" fill="#3F3D56"/>
<path d="M226.399 344.556C235.58 344.556 243.023 337.101 243.023 327.904C243.023 318.708 235.58 311.253 226.399 311.253C217.218 311.253 209.775 318.708 209.775 327.904C209.775 337.101 217.218 344.556 226.399 344.556Z" fill="#3F3D56"/>
<path d="M226.399 331.986C228.649 331.986 230.473 330.158 230.473 327.904C230.473 325.65 228.649 323.823 226.399 323.823C224.149 323.823 222.324 325.65 222.324 327.904C222.324 330.158 224.149 331.986 226.399 331.986Z" fill="white"/>
<path d="M142.466 344.556C153.035 344.556 161.602 335.974 161.602 325.388C161.602 314.802 153.035 306.22 142.466 306.22C131.898 306.22 123.33 314.802 123.33 325.388C123.33 335.974 131.898 344.556 142.466 344.556Z" fill="#3F3D56"/>
<path d="M142.466 330.086C145.057 330.086 147.157 327.983 147.157 325.388C147.157 322.793 145.057 320.69 142.466 320.69C139.876 320.69 137.776 322.793 137.776 325.388C137.776 327.983 139.876 330.086 142.466 330.086Z" fill="white"/>
<path d="M198.424 286.366L194.915 276.819C194.733 276.322 194.649 275.793 194.67 275.263C194.692 274.733 194.817 274.213 195.039 273.732C195.261 273.25 195.575 272.817 195.964 272.458C196.353 272.098 196.809 271.819 197.305 271.636L207.365 267.926C208.239 267.604 209.168 267.457 210.099 267.494C211.03 267.531 211.944 267.752 212.789 268.143C213.635 268.534 214.395 269.088 215.027 269.773C215.659 270.459 216.15 271.262 216.472 272.138C216.762 272.923 216.91 273.755 216.909 274.592C216.905 275.656 216.665 276.706 216.206 277.665C215.746 278.624 215.079 279.469 214.253 280.137C213.656 280.617 212.985 280.995 212.267 281.259L198.424 286.366Z" fill="#3F3D56"/>
<path d="M216.761 274.592C216.761 275.635 216.527 276.663 216.076 277.603C215.626 278.542 214.972 279.369 214.161 280.022C212.916 279.693 211.758 279.097 210.767 278.274C209.776 277.452 208.976 276.423 208.422 275.26C207.868 274.096 207.573 272.826 207.559 271.537C207.545 270.248 207.811 268.971 208.339 267.796C209.352 267.575 210.402 267.584 211.412 267.823C212.422 268.062 213.365 268.524 214.173 269.176C214.981 269.828 215.632 270.653 216.08 271.59C216.528 272.528 216.761 273.553 216.761 274.592Z" fill="#FFBC0D"/>
<path d="M127.32 310.661C129.605 310.661 131.458 308.407 131.458 305.628C131.458 302.849 129.605 300.596 127.32 300.596C125.035 300.596 123.183 302.849 123.183 305.628C123.183 308.407 125.035 310.661 127.32 310.661Z" fill="#FFBC0D"/>
<path d="M182.013 323.442H185.636L187.36 314.029L182.012 314.029L182.013 323.442Z" fill="#FFB8B8"/>
<path d="M181.088 322.257L188.224 322.257H188.224C188.821 322.257 189.412 322.375 189.964 322.604C190.516 322.832 191.017 323.168 191.439 323.591C191.862 324.014 192.197 324.516 192.425 325.069C192.654 325.621 192.771 326.213 192.771 326.812V326.96L181.089 326.96L181.088 322.257Z" fill="#2F2E41"/>
<path d="M186.218 319.579C186.176 319.579 186.134 319.577 186.091 319.573L181.077 319.207C180.874 319.188 180.678 319.123 180.505 319.016C180.331 318.91 180.184 318.764 180.075 318.592C179.967 318.42 179.899 318.224 179.877 318.022C179.856 317.819 179.881 317.614 179.951 317.422L186.662 302.32C186.71 302.186 186.729 302.042 186.719 301.9C186.709 301.757 186.67 301.618 186.604 301.492C186.538 301.364 186.445 301.251 186.333 301.161C186.22 301.071 186.09 301.006 185.95 300.971C182.795 300.145 174.698 297.945 167.69 295.37C164.687 294.268 162.796 292.674 162.069 290.633C161.111 287.943 162.529 285.49 162.589 285.387L162.637 285.307L169.232 285.907L176.381 286.516L192.049 294.932C193.361 295.643 194.359 296.823 194.842 298.238C195.325 299.652 195.258 301.197 194.655 302.564L187.432 318.789C187.327 319.024 187.157 319.224 186.942 319.364C186.726 319.504 186.475 319.579 186.218 319.579Z" fill="#2F2E41"/>
<path d="M170.379 256.029C174.387 256.029 177.637 252.774 177.637 248.758C177.637 244.743 174.387 241.488 170.379 241.488C166.37 241.488 163.12 244.743 163.12 248.758C163.12 252.774 166.37 256.029 170.379 256.029Z" fill="#FFB8B8"/>
<path d="M179.944 324.33H183.567L185.291 314.917L179.943 314.918L179.944 324.33Z" fill="#FFB8B8"/>
<path d="M179.02 323.145L186.155 323.145H186.155C186.752 323.145 187.344 323.263 187.895 323.492C188.447 323.72 188.948 324.056 189.371 324.479C189.793 324.902 190.128 325.404 190.356 325.957C190.585 326.509 190.702 327.102 190.702 327.7V327.848L179.02 327.848L179.02 323.145Z" fill="#2F2E41"/>
<path d="M184.149 320.467C184.107 320.467 184.065 320.465 184.022 320.461L179.008 320.095C178.805 320.076 178.609 320.011 178.436 319.904C178.262 319.798 178.115 319.653 178.007 319.48C177.898 319.308 177.83 319.112 177.808 318.91C177.787 318.707 177.812 318.502 177.882 318.31L184.593 303.208C184.641 303.074 184.66 302.931 184.65 302.788C184.64 302.645 184.601 302.506 184.535 302.38C184.469 302.252 184.376 302.139 184.264 302.049C184.151 301.959 184.021 301.895 183.881 301.859C180.726 301.033 172.63 298.833 165.621 296.259C162.619 295.156 160.727 293.562 160 291.521C159.042 288.832 160.46 286.378 160.521 286.275L160.568 286.195L167.163 286.795L174.312 287.404L189.98 295.82C191.293 296.531 192.29 297.711 192.773 299.126C193.256 300.54 193.189 302.085 192.586 303.453L185.363 319.677C185.258 319.912 185.088 320.112 184.873 320.252C184.657 320.392 184.406 320.467 184.149 320.467Z" fill="#2F2E41"/>
<path d="M172.617 260.152L164.933 257.488C164.933 257.488 160.109 261.2 162.427 270.409C163.637 275.161 163.284 280.177 161.422 284.713C161.198 285.274 160.939 285.821 160.648 286.351C160.648 286.351 169.219 296.712 177.198 289.015L174.095 274.065C174.095 274.065 178.971 264.148 172.617 260.152Z" fill="#FFBC0D"/>
<path d="M171.28 256.276C170.247 254.727 169.431 252.58 170.569 251.106C171.692 249.651 173.906 249.866 175.626 249.222C178.021 248.325 179.41 245.507 178.976 242.983C178.543 240.459 176.52 238.366 174.111 237.51C171.701 236.654 168.984 236.933 166.624 237.919C163.719 239.132 161.227 241.48 160.182 244.454C159.137 247.428 159.696 250.998 161.863 253.284C164.188 255.735 167.835 256.388 171.209 256.348" fill="#2F2E41"/>
<path d="M164.528 243.064C163.226 244.125 161.24 243.654 159.842 242.722C158.445 241.791 157.311 240.464 155.799 239.734C153.134 238.446 149.911 239.302 147.317 240.728C144.722 242.155 142.423 244.125 139.683 245.245C136.942 246.364 133.446 246.419 131.371 244.306C130.86 245.788 130.818 247.391 131.251 248.898C131.684 250.404 132.57 251.74 133.789 252.724C135.008 253.707 136.5 254.29 138.062 254.392C139.624 254.495 141.179 254.112 142.515 253.297C145.518 251.465 147.176 247.623 150.544 246.612C152.407 246.053 154.408 246.503 156.292 246.992C158.175 247.48 160.139 248.007 162.04 247.592C163.94 247.176 165.718 245.465 165.477 243.532L164.528 243.064Z" fill="#2F2E41"/>
<path d="M205.646 274.09C205.455 273.666 205.173 273.289 204.821 272.986C204.469 272.683 204.055 272.461 203.608 272.336C203.161 272.211 202.692 272.185 202.234 272.261C201.777 272.337 201.341 272.512 200.958 272.775L172.743 266.432L172.392 273.339L200.237 277.402C200.72 278.017 201.412 278.433 202.181 278.571C202.95 278.71 203.743 278.561 204.41 278.152C205.077 277.744 205.571 277.105 205.799 276.356C206.026 275.608 205.972 274.801 205.646 274.09Z" fill="#FFB8B8"/>
<path d="M177.69 267.066L175.968 274.059C175.919 274.258 175.828 274.444 175.7 274.604C175.573 274.764 175.413 274.896 175.231 274.988C175.048 275.081 174.848 275.133 174.644 275.142C174.439 275.15 174.235 275.114 174.046 275.036L167.414 272.314C166.398 272.057 165.526 271.408 164.988 270.508C164.45 269.608 164.29 268.532 164.544 267.514C164.798 266.496 165.444 265.621 166.342 265.081C167.239 264.54 168.313 264.378 169.33 264.63L176.443 265.305C176.646 265.325 176.843 265.388 177.021 265.491C177.198 265.593 177.351 265.733 177.469 265.9C177.587 266.067 177.668 266.258 177.706 266.459C177.745 266.66 177.739 266.868 177.69 267.066V267.066Z" fill="#FFBC0D"/>
<path d="M202.386 279.578C203.529 279.578 204.455 278.65 204.455 277.505C204.455 276.361 203.529 275.433 202.386 275.433C201.244 275.433 200.318 276.361 200.318 277.505C200.318 278.65 201.244 279.578 202.386 279.578Z" fill="#FFBC0D"/>
<path d="M294 344.704C294 344.782 293.969 344.858 293.913 344.913C293.858 344.969 293.783 345 293.704 345H49.2955C49.2172 345 49.142 344.969 49.0866 344.913C49.0311 344.858 49 344.782 49 344.704C49 344.625 49.0311 344.55 49.0866 344.495C49.142 344.439 49.2172 344.408 49.2955 344.408H293.704C293.783 344.408 293.858 344.439 293.913 344.495C293.969 344.55 294 344.626 294 344.704Z" fill="#3F3D56"/>
</g>
<defs>
<filter id="filter0_d_1_321" x="0" y="0" width="344" height="474" filterUnits="userSpaceOnUse" color-interpolation-filters="sRGB">
<feFlood flood-opacity="0" result="BackgroundImageFix"/>
<feColorMatrix in="SourceAlpha" type="matrix" values="0 0 0 0 0 0 0 0 0 0 0 0 0 0 0 0 0 0 127 0" result="hardAlpha"/>
<feMorphology radius="5" operator="dilate" in="SourceAlpha" result="effect1_dropShadow_1_321"/>
<feOffset/>
<feGaussianBlur stdDeviation="11"/>
<feComposite in2="hardAlpha" operator="out"/>
<feColorMatrix type="matrix" values="0 0 0 0 0 0 0 0 0 0 0 0 0 0 0 0 0 0 0.25 0"/>
<feBlend mode="normal" in2="BackgroundImageFix" result="effect1_dropShadow_1_321"/>
<feBlend mode="normal" in="SourceGraphic" in2="effect1_dropShadow_1_321" result="shape"/>
</filter>
<clipPath id="clip0_1_321">
<rect width="245" height="108" fill="white" transform="translate(49 237)"/>
</clipPath>
</defs>
</svg>
