<svg width="344" height="474" viewBox="0 0 344 474" fill="none" xmlns="http://www.w3.org/2000/svg">
<g filter="url(#filter0_d_1_227)">
<rect x="27" y="27" width="290" height="420" rx="20" fill="white"/>
</g>
<path d="M27 53H85C90.5228 53 95 57.4772 95 63V77C95 82.5228 90.5228 87 85 87H27V53Z" fill="#FFBC0D"/>
<path d="M65.81 66.964C65.846 65.536 66.26 64.444 67.052 63.688C67.856 62.932 68.99 62.554 70.454 62.554C71.402 62.554 72.212 62.716 72.884 63.04C73.556 63.364 74.06 63.802 74.396 64.354C74.744 64.906 74.918 65.53 74.918 66.226C74.918 67.066 74.72 67.726 74.324 68.206C73.928 68.674 73.484 68.992 72.992 69.16V69.232C74.432 69.772 75.152 70.774 75.152 72.238C75.152 73.006 74.972 73.684 74.612 74.272C74.252 74.86 73.736 75.316 73.064 75.64C72.404 75.964 71.618 76.126 70.706 76.126C69.146 76.126 67.922 75.754 67.034 75.01C66.146 74.266 65.69 73.102 65.666 71.518H69.554C69.53 71.95 69.59 72.28 69.734 72.508C69.89 72.724 70.154 72.832 70.526 72.832C70.742 72.832 70.922 72.754 71.066 72.598C71.21 72.43 71.282 72.214 71.282 71.95C71.282 71.614 71.168 71.362 70.94 71.194C70.724 71.014 70.352 70.924 69.824 70.924H69.158V67.702H69.806C70.622 67.75 71.03 67.426 71.03 66.73C71.03 66.43 70.964 66.208 70.832 66.064C70.712 65.92 70.556 65.848 70.364 65.848C69.92 65.848 69.698 66.22 69.698 66.964H65.81Z" fill="black"/>
<path d="M139.4 130.82H145.26V134H135V131.02L140.8 123.06H135V119.9H145.26V122.88L139.4 130.82ZM147.346 128.38C147.346 127.22 147.552 126.207 147.966 125.34C148.392 124.473 148.966 123.807 149.686 123.34C150.419 122.873 151.232 122.64 152.126 122.64C152.899 122.64 153.566 122.793 154.126 123.1C154.686 123.407 155.119 123.82 155.426 124.34V122.78H159.346V134H155.426V132.44C155.119 132.96 154.679 133.373 154.106 133.68C153.546 133.987 152.886 134.14 152.126 134.14C151.232 134.14 150.419 133.907 149.686 133.44C148.966 132.973 148.392 132.307 147.966 131.44C147.552 130.56 147.346 129.54 147.346 128.38ZM155.426 128.38C155.426 127.66 155.226 127.093 154.826 126.68C154.439 126.267 153.959 126.06 153.386 126.06C152.799 126.06 152.312 126.267 151.926 126.68C151.539 127.08 151.346 127.647 151.346 128.38C151.346 129.1 151.539 129.673 151.926 130.1C152.312 130.513 152.799 130.72 153.386 130.72C153.959 130.72 154.439 130.513 154.826 130.1C155.226 129.687 155.426 129.113 155.426 128.38ZM166.099 124.34C166.406 123.82 166.839 123.407 167.399 123.1C167.959 122.793 168.619 122.64 169.379 122.64C170.273 122.64 171.079 122.873 171.799 123.34C172.533 123.807 173.106 124.473 173.519 125.34C173.946 126.207 174.159 127.22 174.159 128.38C174.159 129.54 173.946 130.56 173.519 131.44C173.106 132.307 172.533 132.973 171.799 133.44C171.079 133.907 170.273 134.14 169.379 134.14C168.619 134.14 167.959 133.987 167.399 133.68C166.853 133.373 166.419 132.96 166.099 132.44V139.36H162.179V122.78H166.099V124.34ZM170.179 128.38C170.179 127.647 169.979 127.08 169.579 126.68C169.193 126.267 168.713 126.06 168.139 126.06C167.566 126.06 167.079 126.267 166.679 126.68C166.293 127.093 166.099 127.66 166.099 128.38C166.099 129.113 166.293 129.687 166.679 130.1C167.079 130.513 167.566 130.72 168.139 130.72C168.713 130.72 169.193 130.513 169.579 130.1C169.979 129.673 170.179 129.1 170.179 128.38ZM181.993 127.14L180.693 127.52V134H176.753V128.64L175.453 129.02V125.62L176.753 125.24V119.2H180.693V124.12L181.993 123.74V127.14ZM183.267 128.38C183.267 127.22 183.473 126.207 183.887 125.34C184.313 124.473 184.887 123.807 185.607 123.34C186.34 122.873 187.153 122.64 188.047 122.64C188.82 122.64 189.487 122.793 190.047 123.1C190.607 123.407 191.04 123.82 191.347 124.34V122.78H195.267V134H191.347V132.44C191.04 132.96 190.6 133.373 190.027 133.68C189.467 133.987 188.807 134.14 188.047 134.14C187.153 134.14 186.34 133.907 185.607 133.44C184.887 132.973 184.313 132.307 183.887 131.44C183.473 130.56 183.267 129.54 183.267 128.38ZM191.347 128.38C191.347 127.66 191.147 127.093 190.747 126.68C190.36 126.267 189.88 126.06 189.307 126.06C188.72 126.06 188.233 126.267 187.847 126.68C187.46 127.08 187.267 127.647 187.267 128.38C187.267 129.1 187.46 129.673 187.847 130.1C188.233 130.513 188.72 130.72 189.307 130.72C189.88 130.72 190.36 130.513 190.747 130.1C191.147 129.687 191.347 129.113 191.347 128.38ZM197.46 128.38C197.46 127.22 197.7 126.207 198.18 125.34C198.66 124.473 199.327 123.807 200.18 123.34C201.047 122.873 202.034 122.64 203.14 122.64C204.567 122.64 205.767 123.033 206.74 123.82C207.714 124.593 208.34 125.68 208.62 127.08H204.46C204.22 126.347 203.754 125.98 203.06 125.98C202.567 125.98 202.174 126.187 201.88 126.6C201.6 127 201.46 127.593 201.46 128.38C201.46 129.167 201.6 129.767 201.88 130.18C202.174 130.593 202.567 130.8 203.06 130.8C203.767 130.8 204.234 130.433 204.46 129.7H208.62C208.34 131.087 207.714 132.173 206.74 132.96C205.767 133.747 204.567 134.14 203.14 134.14C202.034 134.14 201.047 133.907 200.18 133.44C199.327 132.973 198.66 132.307 198.18 131.44C197.7 130.573 197.46 129.553 197.46 128.38ZM205.4 120.06L200.4 122.02V119.36L205.4 117.1V120.06Z" fill="black"/>
<path d="M169.525 233.987H168.487V205.492C168.487 201.118 166.753 196.923 163.666 193.83C160.58 190.738 156.393 189 152.028 189H91.7786C89.6172 189 87.4769 189.427 85.48 190.255C83.4831 191.084 81.6687 192.299 80.1403 193.83C78.612 195.362 77.3996 197.18 76.5725 199.181C75.7453 201.182 75.3196 203.326 75.3196 205.492V361.816C75.3196 363.981 75.7453 366.126 76.5724 368.127C77.3996 370.128 78.6119 371.946 80.1403 373.477C81.6686 375.009 83.4831 376.223 85.48 377.052C87.4769 377.881 89.6171 378.308 91.7786 378.308H152.028C154.189 378.308 156.33 377.881 158.326 377.052C160.323 376.223 162.138 375.009 163.666 373.477C165.195 371.946 166.407 370.128 167.234 368.127C168.061 366.126 168.487 363.981 168.487 361.816V254.269H169.525V233.987Z" fill="#3F3D56"/>
<path d="M152.568 193.681H144.704C145.065 194.569 145.203 195.533 145.106 196.488C145.008 197.442 144.677 198.358 144.143 199.154C143.609 199.951 142.888 200.603 142.042 201.054C141.197 201.506 140.254 201.742 139.297 201.742H104.781C103.823 201.742 102.88 201.506 102.035 201.054C101.19 200.603 100.469 199.951 99.9344 199.154C99.4003 198.358 99.0698 197.442 98.9721 196.488C98.8744 195.533 99.0124 194.569 99.3741 193.681H92.0286C88.7687 193.681 85.6424 194.978 83.3373 197.288C81.0322 199.598 79.7372 202.73 79.7372 205.997V362.091C79.7372 363.708 80.0551 365.31 80.6728 366.804C81.2905 368.298 82.1959 369.656 83.3373 370.8C84.4786 371.943 85.8336 372.851 87.3249 373.469C88.8161 374.088 90.4145 374.407 92.0286 374.407H152.568C155.828 374.407 158.954 373.109 161.259 370.8C163.564 368.49 164.859 365.357 164.859 362.091V205.997C164.859 204.379 164.542 202.778 163.924 201.284C163.306 199.789 162.401 198.432 161.259 197.288C160.118 196.144 158.763 195.237 157.272 194.618C155.78 193.999 154.182 193.681 152.568 193.681H152.568ZM151.247 266.094C151.244 266.939 150.908 267.749 150.312 268.347C149.715 268.945 148.907 269.281 148.063 269.284H132.675C131.831 269.281 131.023 268.945 130.427 268.347C129.83 267.749 129.494 266.939 129.491 266.094V265.296C129.494 264.451 129.83 263.641 130.427 263.043C131.023 262.446 131.831 262.109 132.675 262.106H148.063C148.907 262.109 149.715 262.446 150.312 263.043C150.908 263.641 151.244 264.451 151.247 265.296V266.094ZM152.971 252.004C152.969 252.85 152.633 253.66 152.036 254.257C151.44 254.855 150.631 255.192 149.788 255.194H94.603C93.7593 255.192 92.951 254.855 92.3544 254.257C91.7579 253.66 91.4217 252.85 91.4192 252.004V251.207C91.4217 250.361 91.7579 249.551 92.3544 248.954C92.951 248.356 93.7593 248.019 94.603 248.017H149.788C150.631 248.019 151.44 248.356 152.036 248.954C152.633 249.551 152.969 250.361 152.971 251.207V252.004ZM152.971 237.915C152.969 238.76 152.633 239.57 152.036 240.168C151.44 240.765 150.631 241.102 149.788 241.105H94.603C93.7593 241.102 92.951 240.765 92.3544 240.168C91.7579 239.57 91.4217 238.76 91.4192 237.915V237.117C91.4217 236.272 91.7579 235.462 92.3544 234.864C92.951 234.266 93.7593 233.93 94.603 233.927H149.788C150.631 233.93 151.44 234.266 152.036 234.864C152.633 235.462 152.969 236.272 152.971 237.117V237.915ZM152.971 223.825C152.969 224.67 152.633 225.48 152.036 226.078C151.44 226.676 150.631 227.013 149.788 227.015H94.603C93.7593 227.013 92.951 226.676 92.3544 226.078C91.7579 225.48 91.4217 224.67 91.4192 223.825V223.028C91.4217 222.182 91.7579 221.372 92.3544 220.775C92.951 220.177 93.7593 219.84 94.603 219.838H149.788C150.631 219.84 151.44 220.177 152.036 220.775C152.633 221.372 152.969 222.182 152.971 223.028V223.825Z" fill="white"/>
<path d="M95.7968 253.599C96.8225 253.599 97.654 252.766 97.654 251.738C97.654 250.711 96.8225 249.878 95.7968 249.878C94.7712 249.878 93.9397 250.711 93.9397 251.738C93.9397 252.766 94.7712 253.599 95.7968 253.599Z" fill="white"/>
<path d="M101.899 253.599C102.925 253.599 103.756 252.766 103.756 251.738C103.756 250.711 102.925 249.878 101.899 249.878C100.873 249.878 100.042 250.711 100.042 251.738C100.042 252.766 100.873 253.599 101.899 253.599Z" fill="white"/>
<path d="M108.001 253.599C109.027 253.599 109.858 252.766 109.858 251.738C109.858 250.711 109.027 249.878 108.001 249.878C106.975 249.878 106.144 250.711 106.144 251.738C106.144 252.766 106.975 253.599 108.001 253.599Z" fill="white"/>
<path d="M114.103 253.599C115.129 253.599 115.96 252.766 115.96 251.738C115.96 250.711 115.129 249.878 114.103 249.878C113.078 249.878 112.246 250.711 112.246 251.738C112.246 252.766 113.078 253.599 114.103 253.599Z" fill="white"/>
<path d="M134.002 267.689C135.027 267.689 135.859 266.856 135.859 265.828C135.859 264.8 135.027 263.967 134.002 263.967C132.976 263.967 132.144 264.8 132.144 265.828C132.144 266.856 132.976 267.689 134.002 267.689Z" fill="white"/>
<path d="M140.104 267.689C141.129 267.689 141.961 266.856 141.961 265.828C141.961 264.8 141.129 263.967 140.104 263.967C139.078 263.967 138.247 264.8 138.247 265.828C138.247 266.856 139.078 267.689 140.104 267.689Z" fill="white"/>
<path d="M146.206 267.689C147.232 267.689 148.063 266.856 148.063 265.828C148.063 264.8 147.232 263.967 146.206 263.967C145.18 263.967 144.349 264.8 144.349 265.828C144.349 266.856 145.18 267.689 146.206 267.689Z" fill="white"/>
<path d="M153.398 289.939H90.4617C88.9831 289.939 87.565 290.528 86.5195 291.575C85.474 292.623 84.8866 294.044 84.8866 295.525V326.251C84.8866 327.732 85.474 329.153 86.5195 330.201C87.565 331.248 88.9831 331.837 90.4617 331.837H153.398C154.877 331.837 156.295 331.248 157.34 330.201C158.386 329.153 158.973 327.732 158.973 326.251V295.525C158.973 294.044 158.386 292.623 157.34 291.575C156.295 290.528 154.877 289.939 153.398 289.939H153.398ZM88.9045 293.75C89.0288 293.727 91.9758 293.225 94.4161 294.696C96.8563 296.167 97.7939 299.012 97.8325 299.132L97.9311 299.439L97.6145 299.495C97.1627 299.566 96.706 299.599 96.2487 299.596C94.7983 299.623 93.3668 299.262 92.1027 298.549C89.6626 297.078 88.7251 294.233 88.6865 294.113L88.5878 293.806L88.9045 293.75ZM102.566 322.276H91.3411C90.5224 322.276 89.7372 321.95 89.1583 321.37C88.5794 320.79 88.2542 320.004 88.2542 319.183C88.2542 318.363 88.5794 317.576 89.1583 316.996C89.7372 316.416 90.5224 316.09 91.3411 316.09H102.566C103.385 316.09 104.17 316.416 104.749 316.996C105.328 317.576 105.653 318.363 105.653 319.183C105.653 320.004 105.328 320.79 104.749 321.37C104.17 321.95 103.385 322.276 102.566 322.276ZM153.641 321.714C153.639 322.608 153.283 323.465 152.652 324.097C152.021 324.729 151.166 325.086 150.274 325.088H141.855C140.962 325.086 140.107 324.729 139.476 324.097C138.845 323.465 138.49 322.608 138.487 321.714V316.652C138.49 315.758 138.845 314.902 139.476 314.269C140.107 313.637 140.962 313.281 141.855 313.278H150.274C151.166 313.281 152.021 313.637 152.652 314.269C153.283 314.902 153.639 315.758 153.641 316.652L153.641 321.714Z" fill="#FFBC0D"/>
<path d="M144.569 320.671H141.184C140.942 320.671 140.711 320.767 140.54 320.938C140.369 321.11 140.273 321.342 140.273 321.584C140.273 321.826 140.369 322.059 140.54 322.23C140.711 322.401 140.942 322.497 141.184 322.497H144.569C144.811 322.497 145.043 322.401 145.214 322.23C145.385 322.059 145.481 321.826 145.481 321.584C145.481 321.342 145.385 321.11 145.214 320.938C145.043 320.767 144.811 320.671 144.569 320.671Z" fill="#3F3D56"/>
<path d="M150.819 320.671H147.433C147.192 320.671 146.96 320.767 146.789 320.938C146.618 321.11 146.522 321.342 146.522 321.584C146.522 321.826 146.618 322.059 146.789 322.23C146.96 322.401 147.192 322.497 147.433 322.497H150.819C151.06 322.497 151.292 322.401 151.463 322.23C151.634 322.059 151.73 321.826 151.73 321.584C151.73 321.342 151.634 321.11 151.463 320.938C151.292 320.767 151.06 320.671 150.819 320.671Z" fill="#3F3D56"/>
<path d="M144.569 318.093H141.184C140.942 318.093 140.71 318.189 140.539 318.361C140.368 318.532 140.272 318.764 140.272 319.006C140.272 319.249 140.368 319.481 140.539 319.652C140.71 319.823 140.942 319.92 141.184 319.92H144.569C144.81 319.92 145.042 319.823 145.213 319.652C145.384 319.481 145.48 319.249 145.48 319.006C145.48 318.764 145.384 318.532 145.213 318.361C145.042 318.189 144.81 318.093 144.569 318.093Z" fill="#3F3D56"/>
<path d="M150.818 318.093H147.433C147.191 318.093 146.959 318.189 146.789 318.361C146.618 318.532 146.522 318.764 146.522 319.006C146.522 319.249 146.618 319.481 146.789 319.652C146.959 319.823 147.191 319.92 147.433 319.92H150.818C151.06 319.92 151.292 319.823 151.462 319.652C151.633 319.481 151.729 319.249 151.729 319.006C151.729 318.764 151.633 318.532 151.462 318.361C151.292 318.189 151.06 318.093 150.818 318.093H150.818Z" fill="#3F3D56"/>
<path d="M144.569 315.568H141.184C140.942 315.568 140.71 315.664 140.539 315.835C140.368 316.006 140.272 316.239 140.272 316.481C140.272 316.723 140.368 316.955 140.539 317.126C140.71 317.298 140.942 317.394 141.184 317.394H144.569C144.81 317.394 145.042 317.298 145.213 317.126C145.384 316.955 145.48 316.723 145.48 316.481C145.48 316.239 145.384 316.006 145.213 315.835C145.042 315.664 144.81 315.568 144.569 315.568Z" fill="#3F3D56"/>
<path d="M150.818 315.568H147.433C147.191 315.568 146.959 315.664 146.789 315.835C146.618 316.006 146.522 316.239 146.522 316.481C146.522 316.723 146.618 316.955 146.789 317.126C146.959 317.298 147.191 317.394 147.433 317.394H150.818C151.06 317.394 151.292 317.298 151.462 317.126C151.633 316.955 151.729 316.723 151.729 316.481C151.729 316.239 151.633 316.006 151.462 315.835C151.292 315.664 151.06 315.568 150.818 315.568H150.818Z" fill="#3F3D56"/>
<path d="M196.989 301.513H188.78V309.739H196.989V301.513Z" fill="#E6E6E6"/>
<path d="M179.105 306.507H192.591V320.021H179.105V306.507ZM192.005 307.095H179.691V319.433H192.005V307.095Z" fill="#3F3D56"/>
<path d="M54.2091 233.653H46V241.878H54.2091V233.653Z" fill="#E6E6E6"/>
<path d="M63.8841 236.884H50.3977V223.371H63.8841V236.884ZM50.9841 236.297H63.2978V223.959H50.9841V236.297Z" fill="#3F3D56"/>
<path d="M237.471 383.303H233.876L232.166 369.412H237.471L237.471 383.303Z" fill="#FFB8B8"/>
<path d="M231.309 382.274H238.241V386.648H226.944C226.944 385.488 227.404 384.375 228.223 383.555C229.041 382.735 230.151 382.274 231.309 382.274Z" fill="#2F2E41"/>
<path d="M255.355 383.303H251.76L250.051 369.412H255.355L255.355 383.303Z" fill="#FFB8B8"/>
<path d="M249.193 382.274H256.125V386.648H244.828C244.828 385.488 245.288 384.375 246.107 383.555C246.925 382.735 248.035 382.274 249.193 382.274Z" fill="#2F2E41"/>
<path d="M219.44 333.623C219.181 333.241 219.009 332.808 218.936 332.352C218.863 331.897 218.89 331.431 219.017 330.987C219.143 330.543 219.364 330.132 219.666 329.784C219.967 329.435 220.342 329.157 220.762 328.969L232.981 295.225L238.993 298.513L225.042 330.76C225.31 331.488 225.303 332.29 225.02 333.014C224.738 333.737 224.201 334.332 223.51 334.685C222.82 335.038 222.024 335.125 221.274 334.929C220.523 334.733 219.871 334.269 219.44 333.623Z" fill="#FFB8B8"/>
<path d="M253.519 339.964C253.119 339.734 252.775 339.42 252.51 339.043C252.245 338.665 252.066 338.235 251.985 337.78C251.904 337.326 251.923 336.86 252.042 336.414C252.161 335.968 252.375 335.554 252.671 335.2L248.886 299.504L255.728 299.818L257.301 334.929C257.861 335.466 258.205 336.19 258.268 336.964C258.331 337.739 258.108 338.509 257.642 339.13C257.176 339.75 256.498 340.178 255.739 340.332C254.979 340.485 254.189 340.355 253.519 339.964V339.964Z" fill="#FFB8B8"/>
<path d="M242.604 288.975C246.58 288.975 249.804 285.744 249.804 281.759C249.804 277.774 246.58 274.544 242.604 274.544C238.627 274.544 235.403 277.774 235.403 281.759C235.403 285.744 238.627 288.975 242.604 288.975Z" fill="#FFB8B8"/>
<path d="M253.473 331.846H231.764L231.79 331.676C231.829 331.423 235.659 306.283 232.834 298.059C232.551 297.251 232.576 296.366 232.904 295.575C233.233 294.784 233.841 294.143 234.613 293.775H234.614C238.651 291.869 246.402 289.523 252.943 295.217C253.906 296.068 254.658 297.133 255.139 298.326C255.62 299.518 255.818 300.807 255.717 302.09L253.473 331.846Z" fill="#CCCCCC"/>
<path d="M235.933 309.999L226.16 308.012L230.741 297.134C231.015 296.08 231.695 295.178 232.632 294.626C233.568 294.074 234.685 293.917 235.738 294.19C236.79 294.462 237.691 295.141 238.244 296.078C238.797 297.016 238.957 298.134 238.688 299.189L235.933 309.999Z" fill="#CCCCCC"/>
<path d="M248.451 313.688L247.863 300.192C247.418 297.654 248.867 295.256 251.096 294.864C253.326 294.473 255.503 296.233 255.951 298.789L258.16 311.4L248.451 313.688Z" fill="#CCCCCC"/>
<path d="M252.751 330.23C256.244 343.56 256.625 360.509 255.683 378.996L250.992 378.408L242.489 343.156L237.798 378.996L232.521 378.702C230.945 359.304 229.409 342.652 231.935 331.699L252.751 330.23Z" fill="#2F2E41"/>
<path d="M247.348 287.335C246.005 288.769 243.51 288 243.335 286.041C243.321 285.889 243.322 285.736 243.338 285.584C243.428 284.716 243.929 283.928 243.809 283.012C243.782 282.784 243.697 282.567 243.563 282.381C242.492 280.945 239.979 283.023 238.969 281.723C238.349 280.926 239.078 279.67 238.602 278.779C237.975 277.603 236.116 278.183 234.951 277.539C233.654 276.823 233.732 274.829 234.585 273.617C235.626 272.138 237.451 271.349 239.254 271.235C241.056 271.122 242.846 271.61 244.529 272.267C246.441 273.013 248.337 274.045 249.513 275.73C250.944 277.778 251.082 280.532 250.366 282.927C249.931 284.385 248.445 286.165 247.348 287.335Z" fill="#2F2E41"/>
<path d="M296.707 387H185.004C184.927 387 184.852 386.969 184.797 386.914C184.742 386.859 184.711 386.784 184.711 386.706C184.711 386.628 184.742 386.554 184.797 386.499C184.852 386.443 184.927 386.412 185.004 386.412H296.707C296.785 386.412 296.859 386.443 296.914 386.499C296.969 386.554 297 386.628 297 386.706C297 386.784 296.969 386.859 296.914 386.914C296.859 386.969 296.785 387 296.707 387Z" fill="#3F3D56"/>
<defs>
<filter id="filter0_d_1_227" x="0" y="0" width="344" height="474" filterUnits="userSpaceOnUse" color-interpolation-filters="sRGB">
<feFlood flood-opacity="0" result="BackgroundImageFix"/>
<feColorMatrix in="SourceAlpha" type="matrix" values="0 0 0 0 0 0 0 0 0 0 0 0 0 0 0 0 0 0 127 0" result="hardAlpha"/>
<feMorphology radius="5" operator="dilate" in="SourceAlpha" result="effect1_dropShadow_1_227"/>
<feOffset/>
<feGaussianBlur stdDeviation="11"/>
<feComposite in2="hardAlpha" operator="out"/>
<feColorMatrix type="matrix" values="0 0 0 0 0 0 0 0 0 0 0 0 0 0 0 0 0 0 0.25 0"/>
<feBlend mode="normal" in2="BackgroundImageFix" result="effect1_dropShadow_1_227"/>
<feBlend mode="normal" in="SourceGraphic" in2="effect1_dropShadow_1_227" result="shape"/>
</filter>
</defs>
</svg>
