<svg width="344" height="474" viewBox="0 0 344 474" fill="none" xmlns="http://www.w3.org/2000/svg">
<g filter="url(#filter0_d_1_94)">
<rect x="27" y="27" width="290" height="420" rx="20" fill="white"/>
</g>
<g clip-path="url(#clip0_1_94)">
<path d="M270.421 268.765C270.421 270.58 270.372 272.381 270.274 274.17C269.917 280.858 268.88 287.492 267.177 293.97C267.174 293.972 267.174 293.972 267.177 293.975C266.953 294.832 266.716 295.686 266.465 296.531C266.455 296.572 266.444 296.611 266.43 296.649C266.059 297.917 265.663 299.174 265.241 300.419V300.422C258.616 319.983 246.034 336.976 229.263 349.012C212.493 361.049 192.376 367.525 171.738 367.531C125.06 367.531 85.9554 335.099 75.6892 291.52C73.9341 284.062 73.0504 276.426 73.0558 268.765C73.0558 267.243 73.0903 265.729 73.1594 264.223C73.9774 245.811 79.9522 228.001 90.4016 212.826C90.527 212.641 90.6551 212.455 90.786 212.273C108.62 186.716 138.23 170 171.738 170C219.095 170 258.658 203.384 268.216 247.921C268.217 247.922 268.218 247.924 268.218 247.926C268.834 250.797 269.323 253.71 269.685 256.668C270.177 260.682 270.423 264.722 270.421 268.765Z" fill="#F2F2F2"/>
<path d="M296.118 351.603C295.381 354.27 294.23 356.804 292.708 359.114C289.306 364.262 284.437 368.199 279.086 371.351C278.715 371.572 278.339 371.787 277.963 372H274.209L274.078 371.7V371.697L273.926 371.351L273.906 371.31L273.898 371.351L273.748 372H271.906C271.753 371.784 271.603 371.569 271.456 371.351C271.24 371.031 271.033 370.71 270.837 370.382C270.49 369.81 270.181 369.215 269.91 368.603C269.877 368.535 269.85 368.467 269.823 368.399L269.946 368.265L269.436 366.033L270.461 365.864L269.338 362.396C269.379 362.268 269.425 362.14 269.474 362.012C270.104 360.416 271.287 359.223 272.691 358.222C274.135 357.188 275.817 356.359 277.363 355.496C278.088 355.09 278.802 354.662 279.498 354.209V354.206C280.386 353.63 281.249 353.015 282.085 352.359C282.099 352.35 282.113 352.34 282.125 352.329C282.137 352.321 282.148 352.311 282.158 352.302C285.906 349.371 289.077 345.77 291.511 341.68C291.512 341.68 291.512 341.68 291.512 341.68C291.513 341.68 291.513 341.68 291.513 341.679C291.513 341.679 291.514 341.679 291.514 341.678C291.514 341.678 291.514 341.678 291.514 341.677C291.596 341.546 291.672 341.416 291.748 341.282V341.279C292.745 339.563 293.603 337.771 294.314 335.918V335.915C294.368 335.779 294.417 335.642 294.469 335.506C294.54 335.626 294.608 335.746 294.673 335.866C294.674 335.866 294.674 335.866 294.674 335.866C294.675 335.866 294.675 335.867 294.675 335.867C294.676 335.867 294.676 335.867 294.676 335.868C294.676 335.868 294.676 335.868 294.676 335.869C297.32 340.602 297.571 346.305 296.118 351.603Z" fill="#F0F0F0"/>
<path d="M294.676 335.869C294.703 338.395 294.44 340.916 293.894 343.383C293.648 344.511 293.342 345.626 292.978 346.722C292.27 348.866 291.345 350.932 290.216 352.888C290.154 352.994 290.094 353.098 290.028 353.202V353.205C289.546 354.018 289.023 354.807 288.461 355.567C287.61 356.779 286.559 357.836 285.353 358.694C284.368 359.345 283.254 359.776 282.087 359.957C281.869 359.998 281.646 360.028 281.419 360.055C280.517 360.162 279.585 360.203 278.691 360.394C278.238 360.483 277.797 360.625 277.377 360.817C275.937 361.485 275.128 362.885 274.773 364.38C274.711 364.642 274.662 364.906 274.623 365.171C274.326 367.204 274.653 369.315 274.484 371.351C274.465 371.566 274.441 371.784 274.411 372H274.209L274.078 371.7V371.697C274.092 371.583 274.103 371.468 274.114 371.351C274.179 370.351 274.187 369.348 274.138 368.347C274.127 367.897 274.119 367.444 274.125 366.991C274.13 366.628 274.144 366.265 274.171 365.905V365.902C274.19 365.678 274.212 365.457 274.242 365.236C274.328 364.56 274.495 363.896 274.738 363.258C274.975 362.602 275.348 362.003 275.833 361.5C276.318 360.998 276.903 360.604 277.551 360.345C277.947 360.196 278.354 360.082 278.77 360.004C279.683 359.829 280.626 359.785 281.545 359.671C281.643 359.66 281.741 359.646 281.836 359.63C281.959 359.611 282.079 359.589 282.199 359.567C283.401 359.353 284.536 358.861 285.514 358.129C286.676 357.209 287.686 356.111 288.507 354.877C288.954 354.236 289.379 353.581 289.775 352.907C289.775 352.907 289.775 352.906 289.775 352.906C289.775 352.906 289.775 352.906 289.775 352.905C289.776 352.905 289.776 352.905 289.776 352.905C289.777 352.905 289.777 352.904 289.777 352.904C289.796 352.872 289.816 352.842 289.835 352.809L289.837 352.804C291.533 349.904 292.771 346.759 293.507 343.481C293.531 343.361 293.558 343.241 293.586 343.121C294.092 340.754 294.336 338.338 294.314 335.918V335.915C294.314 335.801 294.311 335.689 294.308 335.574C294.303 335.34 294.665 335.288 294.671 335.522C294.673 335.637 294.676 335.751 294.673 335.866C294.674 335.866 294.674 335.866 294.674 335.866C294.675 335.866 294.675 335.867 294.675 335.867C294.676 335.867 294.676 335.867 294.676 335.868C294.676 335.868 294.676 335.868 294.676 335.869Z" fill="white"/>
<path d="M289.873 353.128C290.911 353.656 292.104 353.797 293.237 353.527C294.37 353.256 295.371 352.591 296.059 351.65C296.198 351.459 295.908 351.235 295.769 351.426C295.13 352.303 294.198 352.922 293.142 353.172C292.086 353.422 290.976 353.286 290.012 352.789C289.802 352.681 289.664 353.021 289.873 353.128Z" fill="white"/>
<path d="M282.234 359.676C281.475 357.416 281.595 354.954 282.569 352.779C282.666 352.563 282.327 352.424 282.23 352.64C281.22 354.905 281.101 357.468 281.896 359.817C281.972 360.041 282.31 359.898 282.234 359.676V359.676Z" fill="white"/>
<path d="M293.691 343.154C293.247 343.034 292.839 342.805 292.505 342.487C292.171 342.17 291.921 341.775 291.777 341.337C291.704 341.113 291.366 341.256 291.439 341.479C291.6 341.962 291.877 342.398 292.245 342.749C292.613 343.1 293.062 343.356 293.552 343.493C293.597 343.51 293.647 343.509 293.691 343.491C293.736 343.472 293.771 343.437 293.791 343.393C293.809 343.348 293.809 343.298 293.79 343.253C293.771 343.208 293.736 343.173 293.691 343.154Z" fill="white"/>
<path d="M279.498 354.206V354.209C279.413 356.157 279.17 358.095 278.77 360.004V360.006C278.748 360.137 278.718 360.265 278.691 360.394C278.033 363.346 277.11 366.232 275.935 369.018C275.61 369.804 275.27 370.581 274.915 371.351C274.817 371.569 274.716 371.784 274.613 372H274.209L274.078 371.7V371.697L273.926 371.351L273.906 371.31L273.898 371.351L273.748 372H269.85L269.092 371.351L267.988 370.404L269.531 368.718L269.785 368.44L269.823 368.399L269.945 368.265L269.436 366.033L270.461 365.864L269.338 362.396L268.806 360.757L268.672 360.345L267.895 357.946L265.551 358.386L265.169 357.049C265.872 355.419 266.457 353.74 266.92 352.026C266.922 352.012 266.928 352.001 266.93 351.988C268.169 347.371 268.541 342.564 268.026 337.811V337.809C268.01 337.656 267.991 337.5 267.969 337.35V337.345C267.735 335.375 267.342 333.428 266.791 331.523C266.753 331.378 266.71 331.236 266.669 331.094C266.794 331.149 266.917 331.201 267.042 331.255L267.045 331.258H267.05C267.249 331.345 267.448 331.438 267.642 331.536C272.293 333.798 275.714 338.043 277.657 342.938C277.663 342.952 277.668 342.963 277.674 342.976C278.688 345.542 279.292 348.252 279.465 351.006C279.53 352.071 279.541 353.139 279.498 354.206Z" fill="#F0F0F0"/>
<path d="M272.424 372H271.993C271.856 371.779 271.709 371.563 271.562 371.351C271.328 371.021 271.086 370.698 270.837 370.382C270.622 370.109 270.406 369.839 270.191 369.569C269.967 369.288 269.747 369.007 269.531 368.718L269.785 368.44C269.826 368.494 269.866 368.549 269.91 368.603C270.608 369.523 271.363 370.407 272.009 371.351C272.154 371.563 272.293 371.779 272.424 372Z" fill="white"/>
<path d="M266.578 331.247C266.649 331.337 266.723 331.429 266.791 331.522C267.323 332.213 267.825 332.925 268.298 333.659C269.142 334.953 269.89 336.307 270.539 337.71C270.591 337.819 270.643 337.931 270.692 338.043C272.08 341.108 272.985 344.37 273.374 347.712C273.38 347.745 273.383 347.775 273.385 347.808C273.475 348.588 273.533 349.371 273.56 350.157C273.647 351.636 273.5 353.121 273.126 354.555C273.072 354.743 273.012 354.929 272.946 355.109C272.782 355.55 272.577 355.975 272.333 356.377C272.158 356.671 271.963 356.953 271.75 357.22C271.621 357.384 271.488 357.545 271.346 357.7C271.264 357.791 271.18 357.881 271.095 357.971C271.024 358.039 270.956 358.11 270.885 358.178C270.149 358.893 269.337 359.556 268.672 360.344L268.806 360.756C269.446 359.943 270.272 359.269 271.016 358.56C271.484 358.12 271.909 357.638 272.287 357.119C272.336 357.048 272.388 356.977 272.434 356.904C272.686 356.534 272.905 356.143 273.085 355.733C273.178 355.529 273.263 355.319 273.339 355.1C273.784 353.69 273.987 352.214 273.939 350.735C273.93 349.788 273.873 348.842 273.77 347.9C273.759 347.778 273.745 347.658 273.729 347.535C273.452 345.294 272.948 343.087 272.224 340.949C271.307 338.236 270.047 335.652 268.473 333.26C268.023 332.575 267.546 331.907 267.042 331.255C266.976 331.165 266.908 331.078 266.837 330.987C266.693 330.802 266.434 331.061 266.578 331.247Z" fill="white"/>
<path d="M273.599 347.935C274.746 347.731 275.783 347.125 276.525 346.226C277.267 345.327 277.666 344.193 277.65 343.027C277.649 342.98 277.629 342.934 277.595 342.901C277.562 342.868 277.516 342.849 277.469 342.848C277.421 342.847 277.375 342.865 277.341 342.898C277.306 342.93 277.285 342.975 277.283 343.023C277.3 344.108 276.929 345.164 276.236 346C275.543 346.836 274.575 347.396 273.506 347.58C273.274 347.62 273.368 347.975 273.599 347.935Z" fill="white"/>
<path d="M271.439 357.766C269.474 356.419 268.088 354.381 267.558 352.057C267.505 351.827 267.151 351.92 267.203 352.15C267.759 354.567 269.206 356.686 271.254 358.082C271.449 358.215 271.633 357.898 271.439 357.766H271.439Z" fill="white"/>
<path d="M270.648 337.671C270.221 337.842 269.757 337.905 269.3 337.853C268.842 337.801 268.405 337.636 268.026 337.373C267.833 337.238 267.649 337.556 267.842 337.69C268.261 337.979 268.744 338.16 269.25 338.218C269.755 338.277 270.267 338.211 270.741 338.025C270.787 338.011 270.826 337.981 270.851 337.939C270.875 337.898 270.882 337.848 270.872 337.801C270.859 337.754 270.829 337.714 270.787 337.69C270.745 337.665 270.695 337.658 270.648 337.671Z" fill="white"/>
<path d="M218.645 212.828H46.2708C46.1984 212.826 46.1295 212.796 46.0789 212.744C46.0283 212.693 46 212.623 46 212.551C46 212.478 46.0283 212.409 46.0789 212.357C46.1295 212.305 46.1984 212.275 46.2708 212.274H218.645C218.717 212.275 218.786 212.305 218.836 212.357C218.887 212.409 218.915 212.478 218.915 212.551C218.915 212.623 218.887 212.693 218.836 212.744C218.786 212.796 218.717 212.826 218.645 212.828Z" fill="#CACACA"/>
<path d="M52.3648 208.949C54.0097 208.949 55.3431 207.585 55.3431 205.902C55.3431 204.219 54.0097 202.855 52.3648 202.855C50.72 202.855 49.3865 204.219 49.3865 205.902C49.3865 207.585 50.72 208.949 52.3648 208.949Z" fill="#3F3D56"/>
<path d="M62.6535 208.949C64.2983 208.949 65.6318 207.585 65.6318 205.902C65.6318 204.219 64.2983 202.855 62.6535 202.855C61.0086 202.855 59.6752 204.219 59.6752 205.902C59.6752 207.585 61.0086 208.949 62.6535 208.949Z" fill="#3F3D56"/>
<path d="M72.9421 208.949C74.587 208.949 75.9204 207.585 75.9204 205.902C75.9204 204.219 74.587 202.855 72.9421 202.855C71.2972 202.855 69.9638 204.219 69.9638 205.902C69.9638 207.585 71.2972 208.949 72.9421 208.949Z" fill="#3F3D56"/>
<path d="M212.479 203.61H205.171C205.026 203.613 204.888 203.673 204.786 203.776C204.685 203.88 204.628 204.019 204.628 204.164C204.628 204.309 204.685 204.448 204.786 204.552C204.888 204.655 205.026 204.715 205.171 204.718H212.479C212.624 204.715 212.762 204.655 212.863 204.552C212.965 204.448 213.022 204.309 213.022 204.164C213.022 204.019 212.965 203.88 212.863 203.776C212.762 203.673 212.624 203.613 212.479 203.61Z" fill="#3F3D56"/>
<path d="M212.479 205.689H205.171C205.026 205.692 204.888 205.752 204.786 205.855C204.685 205.959 204.628 206.098 204.628 206.243C204.628 206.388 204.685 206.527 204.786 206.631C204.888 206.734 205.026 206.794 205.171 206.797H212.479C212.624 206.794 212.762 206.734 212.863 206.631C212.965 206.527 213.022 206.388 213.022 206.243C213.022 206.098 212.965 205.959 212.863 205.855C212.762 205.752 212.624 205.692 212.479 205.689Z" fill="#3F3D56"/>
<path d="M212.479 207.765H205.171C205.026 207.768 204.888 207.828 204.786 207.931C204.685 208.035 204.628 208.174 204.628 208.319C204.628 208.464 204.685 208.604 204.786 208.707C204.888 208.811 205.026 208.87 205.171 208.873H212.479C212.624 208.87 212.762 208.811 212.863 208.707C212.965 208.604 213.022 208.464 213.022 208.319C213.022 208.174 212.965 208.035 212.863 207.931C212.762 207.828 212.624 207.768 212.479 207.765Z" fill="#3F3D56"/>
<path d="M91.432 224.116H83.6928C79.328 232.717 76.2554 241.915 74.5742 251.413H91.432C91.9693 251.414 92.5014 251.309 92.998 251.104C93.4945 250.898 93.9456 250.597 94.3255 250.217C94.7054 249.836 95.0066 249.385 95.2117 248.888C95.4169 248.391 95.522 247.858 95.5211 247.321V228.206C95.5197 227.121 95.0883 226.081 94.3217 225.315C93.5551 224.548 92.5158 224.117 91.432 224.116Z" fill="#CCCCCC"/>
<path d="M148.763 224.116H113.698C112.614 224.117 111.575 224.548 110.809 225.315C110.042 226.081 109.611 227.121 109.609 228.206V247.321C109.611 248.406 110.042 249.446 110.808 250.213C111.575 250.98 112.614 251.412 113.698 251.413H148.763C149.847 251.412 150.887 250.98 151.653 250.213C152.42 249.446 152.851 248.406 152.852 247.321V228.206C152.851 227.121 152.42 226.081 151.653 225.315C150.886 224.548 149.847 224.117 148.763 224.116Z" fill="#CCCCCC"/>
<path d="M206.095 224.116H171.03C169.946 224.117 168.907 224.548 168.14 225.315C167.373 226.081 166.942 227.121 166.941 228.206V247.321C166.942 248.406 167.373 249.446 168.14 250.213C168.906 250.98 169.946 251.412 171.03 251.413H206.095C207.179 251.412 208.218 250.98 208.985 250.213C209.751 249.446 210.182 248.406 210.184 247.321V228.206C210.182 227.121 209.751 226.081 208.984 225.315C208.218 224.548 207.178 224.117 206.095 224.116Z" fill="#CCCCCC"/>
<path d="M91.432 264.223H73.1594C73.0912 265.729 73.0567 267.243 73.0558 268.765C73.0504 276.426 73.9341 284.062 75.6891 291.519H91.432C92.5161 291.518 93.5554 291.087 94.322 290.319C95.0885 289.552 95.5198 288.512 95.5211 287.427V268.312C95.5196 267.228 95.0883 266.188 94.3217 265.421C93.5551 264.654 92.5158 264.223 91.432 264.223Z" fill="#CCCCCC"/>
<path d="M148.763 264.223H113.698C112.614 264.223 111.575 264.654 110.809 265.421C110.042 266.188 109.611 267.228 109.609 268.312V287.427C109.611 288.512 110.042 289.552 110.808 290.319C111.575 291.087 112.614 291.518 113.698 291.519H148.763C149.847 291.518 150.887 291.087 151.653 290.319C152.42 289.552 152.851 288.512 152.852 287.427V268.312C152.851 267.228 152.42 266.188 151.653 265.421C150.886 264.654 149.847 264.223 148.763 264.223Z" fill="#CCCCCC"/>
<path d="M206.095 264.223H171.03C169.946 264.223 168.907 264.654 168.14 265.421C167.373 266.188 166.942 267.228 166.941 268.312V287.427C166.942 288.512 167.373 289.552 168.14 290.319C168.906 291.087 169.946 291.518 171.03 291.519H206.095C206.206 291.519 206.318 291.514 206.43 291.503C206.868 291.471 207.297 291.365 207.7 291.189C208.431 290.877 209.054 290.358 209.495 289.697C209.936 289.035 210.175 288.26 210.184 287.465V268.312C210.182 267.228 209.751 266.188 208.984 265.421C208.218 264.654 207.178 264.223 206.095 264.223Z" fill="#CCCCCC"/>
<path d="M92.1639 255.978C96.6443 255.978 100.276 252.343 100.276 247.859C100.276 243.375 96.6443 239.74 92.1639 239.74C87.6835 239.74 84.0514 243.375 84.0514 247.859C84.0514 252.343 87.6835 255.978 92.1639 255.978Z" fill="#FFBC0D"/>
<path d="M91.0572 252.085C90.9171 252.085 90.7789 252.052 90.6536 251.989C90.5283 251.927 90.4194 251.836 90.3353 251.723L88.1221 248.77C88.051 248.675 87.9993 248.567 87.9699 248.452C87.9405 248.337 87.934 248.218 87.9507 248.1C87.9675 247.983 88.0072 247.87 88.0676 247.768C88.128 247.666 88.2078 247.577 88.3026 247.506C88.3974 247.434 88.5053 247.383 88.6201 247.353C88.7349 247.324 88.8544 247.317 88.9717 247.334C89.089 247.351 89.2019 247.391 89.3038 247.451C89.4058 247.511 89.4949 247.591 89.566 247.686L91.0139 249.618L94.7328 244.035C94.7985 243.937 94.883 243.852 94.9814 243.785C95.0799 243.719 95.1905 243.673 95.3067 243.65C95.423 243.627 95.5427 243.626 95.6591 243.649C95.7754 243.672 95.8861 243.718 95.9848 243.784C96.0835 243.85 96.1682 243.935 96.2342 244.033C96.3001 244.132 96.346 244.242 96.3692 244.359C96.3924 244.475 96.3924 244.595 96.3693 244.712C96.3462 244.828 96.3004 244.939 96.2345 245.037L91.8081 251.683C91.728 251.803 91.6203 251.902 91.494 251.972C91.3677 252.042 91.2265 252.08 91.0823 252.084C91.0739 252.085 91.0655 252.085 91.0572 252.085Z" fill="white"/>
<path d="M151.319 256.797C155.799 256.797 159.431 253.162 159.431 248.678C159.431 244.193 155.799 240.558 151.319 240.558C146.839 240.558 143.206 244.193 143.206 248.678C143.206 253.162 146.839 256.797 151.319 256.797Z" fill="#FFBC0D"/>
<path d="M150.212 252.903C150.072 252.903 149.934 252.871 149.809 252.808C149.683 252.745 149.574 252.654 149.49 252.542L147.277 249.588C147.206 249.494 147.154 249.386 147.125 249.271C147.096 249.156 147.089 249.036 147.106 248.919C147.123 248.801 147.162 248.688 147.223 248.586C147.283 248.484 147.363 248.395 147.458 248.324C147.552 248.253 147.66 248.201 147.775 248.172C147.89 248.142 148.009 248.136 148.127 248.153C148.244 248.169 148.357 248.209 148.459 248.269C148.561 248.33 148.65 248.41 148.721 248.505L150.169 250.437L153.888 244.854C154.021 244.655 154.227 244.517 154.462 244.47C154.696 244.423 154.94 244.471 155.139 244.604C155.338 244.737 155.476 244.943 155.523 245.178C155.57 245.413 155.522 245.657 155.39 245.856L150.963 252.501C150.883 252.621 150.775 252.72 150.649 252.79C150.523 252.86 150.382 252.899 150.237 252.903C150.229 252.903 150.221 252.903 150.212 252.903Z" fill="white"/>
<path d="M267.166 292.429L264.627 267.83L263.957 257.705L271.064 256.419C271.064 256.419 272.128 263.379 273.06 267.464C273.978 271.494 271.836 291.889 271.779 292.427C272.301 292.894 272.669 293.509 272.834 294.19C272.999 294.871 272.954 295.586 272.704 296.241C272.455 296.896 272.012 297.459 271.436 297.857C270.859 298.255 270.176 298.468 269.475 298.468C268.775 298.468 268.091 298.256 267.514 297.859C266.937 297.462 266.495 296.899 266.244 296.244C265.994 295.59 265.948 294.874 266.113 294.193C266.277 293.512 266.645 292.897 267.166 292.429Z" fill="#A0616A"/>
<path d="M248.976 365.655L245.451 366.461L240.666 353.238L245.868 352.048L248.976 365.655Z" fill="#A0616A"/>
<path d="M249.613 364.298L248.714 364.502L248.621 364.524L244.507 363.853L244.387 363.834L242.67 365.885C241.497 366.154 240.478 366.878 239.838 367.898C239.198 368.919 238.989 370.151 239.257 371.326L239.262 371.35L239.292 371.47L239.816 371.35L250.657 368.868L249.613 364.298Z" fill="#2F2E41"/>
<path d="M269.989 367.961H266.373L264.653 354.003L269.99 354.003L269.989 367.961Z" fill="#A0616A"/>
<path d="M269.895 366.78L269.579 366.652L266.035 365.209L265.92 365.162L263.791 366.78C263.195 366.78 262.605 366.897 262.055 367.125C261.504 367.353 261.004 367.688 260.582 368.109C260.161 368.531 259.826 369.032 259.598 369.582C259.37 370.133 259.253 370.724 259.252 371.32V371.468L269.232 371.47H270.912V366.78H269.895Z" fill="#2F2E41"/>
<path d="M264.49 293.257L267.531 322.172C267.531 322.172 271.579 351.124 270.819 355.119C270.059 359.113 271.009 359.684 271.009 359.684L264.072 359.19C264.072 359.19 264.262 356.717 263.121 355.575C261.981 354.434 262.551 351.01 262.551 351.01L249.094 303.909L240.921 328.639C240.921 328.639 246.084 348.694 245.894 349.074C245.704 349.455 249.165 357.805 249.165 357.805L241.421 360.375C241.421 360.375 242.372 357.332 241.041 356.38C239.711 355.429 238.57 356.19 239.711 354.478C240.851 352.766 230.725 340.193 230.948 332.089C231.015 329.652 231.096 327.036 231.193 324.357C231.708 310.177 232.68 294.199 234.459 293.257C237.69 291.545 264.49 293.257 264.49 293.257Z" fill="#2F2E41"/>
<path d="M250.088 234.711C254.219 234.711 257.567 231.36 257.567 227.225C257.567 223.091 254.219 219.739 250.088 219.739C245.957 219.739 242.608 223.091 242.608 227.225C242.608 231.36 245.957 234.711 250.088 234.711Z" fill="#A0616A"/>
<path d="M275.063 272.954L264.906 275.535L264.976 272.681L264.205 271.863L262.665 263.788L261.03 242.881L266.642 245.861L266.649 245.866C267.629 246.945 268.449 248.16 269.083 249.473C271.199 253.778 273.231 263.26 274.295 268.767C274.332 268.883 274.402 268.985 274.498 269.059C275.026 269.544 275.37 270.196 275.473 270.906C275.576 271.616 275.431 272.339 275.063 272.954V272.954Z" fill="#3F3D56"/>
<path d="M215.042 282.206C215.042 282.206 229.061 267.413 229.192 267.134C230.171 259.691 232.988 256.408 233.41 256.764L240.68 259.285C240.68 259.285 238.517 266.138 237.053 270.209C235.654 274.099 219.531 283.6 219.262 284.069C219.551 284.707 219.639 285.418 219.515 286.108C219.392 286.798 219.062 287.434 218.569 287.932C218.076 288.43 217.444 288.766 216.756 288.897C216.068 289.027 215.357 288.946 214.716 288.663C214.076 288.38 213.536 287.909 213.168 287.313C212.801 286.716 212.623 286.022 212.658 285.322C212.694 284.622 212.94 283.95 213.366 283.393C213.791 282.836 214.376 282.422 215.042 282.206Z" fill="#A0616A"/>
<path d="M244.172 244.228C244.172 244.228 237.878 241.141 235.437 247.204C234.098 250.627 230.675 258.935 228.969 264.05C228.958 264.082 228.943 264.113 228.923 264.141C228.467 264.82 228.221 265.618 228.215 266.436C228.216 266.495 228.21 266.555 228.197 266.613C228.197 266.613 235.114 267.961 237.171 271.59L237.987 270.704L238.132 270.083L244.172 244.228Z" fill="#3F3D56"/>
<path d="M267.075 296.408C252.589 299.402 233.392 294.255 233.392 294.255L238.513 272.038L236.693 248.788C236.47 245.945 238.088 243.28 240.606 242.335L244.081 241.032L246.954 236.916L255.16 237.185L258.441 241.507L261.03 242.881L266.642 245.861L266.667 245.873V245.885L264.906 262.984L263.844 273.294C263.844 273.294 267.07 284.889 266.408 286.427C265.746 287.963 266.321 287.221 266.482 288.042C266.642 288.862 267.134 288.914 267.208 290.531C267.285 292.146 267.075 296.408 267.075 296.408Z" fill="#3F3D56"/>
<path d="M258.202 224.559C257.611 223.976 258.5 222.431 258.332 221.617C258.14 220.684 257.112 220.656 256.867 219.736C256.604 218.745 255.549 218.206 254.574 217.892C252.075 217.092 249.409 216.969 246.847 217.538C245.713 217.815 244.597 218.159 243.504 218.568C242.749 218.834 243.477 218.111 242.722 218.377C242.437 218.441 242.185 218.608 242.015 218.847C241.879 219.103 242.062 219.514 242.348 219.462C241.426 219.868 240.505 220.275 239.584 220.681C240.101 221.223 240.617 221.765 241.134 222.306C240.4 222.097 239.617 222.974 239.906 223.681C240.023 223.904 240.192 224.095 240.398 224.239C240.605 224.382 240.844 224.473 241.094 224.503C241.923 224.665 241.294 225.455 242.139 225.44C242.984 225.425 248.878 223.691 249.289 224.43C249.581 224.956 249.549 225.654 249.967 226.088C250.501 226.643 251.435 226.44 252.115 226.078C252.795 225.717 253.485 225.22 254.25 225.307C255.049 225.398 255.653 226.875 255.85 227.655C256.047 228.436 255.923 229.257 255.797 230.052C255.633 231.095 253.986 232.139 253.822 233.183C255.649 233.689 257.61 232.08 258.332 229.281C258.26 227.512 259.461 225.803 258.202 224.559Z" fill="#2F2E41"/>
<path d="M208.02 295.539C212.501 295.539 216.133 291.904 216.133 287.42C216.133 282.936 212.501 279.3 208.02 279.3C203.54 279.3 199.908 282.936 199.908 287.42C199.908 291.904 203.54 295.539 208.02 295.539Z" fill="#FFBC0D"/>
<path d="M206.914 291.645C206.774 291.645 206.636 291.613 206.51 291.55C206.385 291.487 206.276 291.396 206.192 291.284L203.979 288.331C203.908 288.236 203.856 288.128 203.827 288.013C203.797 287.898 203.791 287.778 203.807 287.661C203.824 287.544 203.864 287.431 203.924 287.329C203.985 287.227 204.064 287.137 204.159 287.066C204.254 286.995 204.362 286.943 204.477 286.914C204.592 286.884 204.711 286.878 204.828 286.895C204.946 286.911 205.058 286.951 205.16 287.012C205.262 287.072 205.351 287.152 205.423 287.247L206.871 289.179L210.589 283.596C210.655 283.497 210.74 283.412 210.838 283.346C210.937 283.28 211.047 283.234 211.163 283.211C211.28 283.187 211.399 283.187 211.516 283.21C211.632 283.233 211.743 283.279 211.841 283.345C211.94 283.411 212.025 283.495 212.091 283.594C212.157 283.692 212.203 283.803 212.226 283.92C212.249 284.036 212.249 284.156 212.226 284.272C212.203 284.389 212.157 284.499 212.091 284.598L207.665 291.243C207.585 291.363 207.477 291.463 207.351 291.533C207.224 291.602 207.083 291.641 206.939 291.645C206.931 291.645 206.922 291.645 206.914 291.645Z" fill="white"/>
<path d="M295.418 371.675C295.418 371.718 295.409 371.76 295.393 371.8C295.377 371.839 295.353 371.875 295.323 371.905C295.293 371.935 295.257 371.959 295.217 371.976C295.178 371.992 295.136 372 295.093 372H218.685C218.599 372 218.517 371.966 218.456 371.905C218.395 371.844 218.361 371.761 218.361 371.675C218.361 371.589 218.395 371.507 218.456 371.446C218.517 371.385 218.599 371.351 218.685 371.351H295.093C295.136 371.351 295.178 371.359 295.217 371.375C295.257 371.391 295.293 371.415 295.323 371.445C295.353 371.476 295.377 371.511 295.393 371.551C295.409 371.59 295.418 371.633 295.418 371.675Z" fill="#CCCCCC"/>
</g>
<path d="M27 53H85C90.5228 53 95 57.4772 95 63V77C95 82.5228 90.5228 87 85 87H27V53Z" fill="#FFBC0D"/>
<path d="M65.18 66.586V62.842H71.282V76H67.088V66.586H65.18Z" fill="black"/>
<path d="M112.98 117.9L109.52 132H104.7L102.76 123.36L100.78 132H95.96L92.54 117.9H96.78L98.42 127.54L100.64 117.9H104.94L107.1 127.46L108.74 117.9H112.98ZM127.323 120.78L120.203 137.34H115.943L118.623 131.52L114.023 120.78H118.383L120.743 127.14L123.023 120.78H127.323ZM132.869 122.34C133.176 121.807 133.609 121.393 134.169 121.1C134.729 120.793 135.389 120.64 136.149 120.64C137.042 120.64 137.849 120.873 138.569 121.34C139.302 121.807 139.876 122.473 140.289 123.34C140.716 124.207 140.929 125.22 140.929 126.38C140.929 127.54 140.716 128.56 140.289 129.44C139.876 130.307 139.302 130.973 138.569 131.44C137.849 131.907 137.042 132.14 136.149 132.14C135.389 132.14 134.729 131.993 134.169 131.7C133.609 131.393 133.176 130.973 132.869 130.44V132H128.949V117.2H132.869V122.34ZM136.949 126.38C136.949 125.647 136.749 125.08 136.349 124.68C135.962 124.267 135.482 124.06 134.909 124.06C134.336 124.06 133.849 124.267 133.449 124.68C133.062 125.093 132.869 125.66 132.869 126.38C132.869 127.113 133.062 127.687 133.449 128.1C133.849 128.513 134.336 128.72 134.909 128.72C135.482 128.72 135.962 128.513 136.349 128.1C136.749 127.673 136.949 127.1 136.949 126.38ZM145.123 119.74C144.429 119.74 143.869 119.553 143.443 119.18C143.029 118.793 142.823 118.313 142.823 117.74C142.823 117.153 143.029 116.667 143.443 116.28C143.869 115.893 144.429 115.7 145.123 115.7C145.803 115.7 146.349 115.893 146.763 116.28C147.189 116.667 147.403 117.153 147.403 117.74C147.403 118.313 147.189 118.793 146.763 119.18C146.349 119.553 145.803 119.74 145.123 119.74ZM147.063 120.78V132H143.143V120.78H147.063ZM160.615 126.26C160.615 126.567 160.595 126.873 160.555 127.18H153.135C153.175 127.793 153.342 128.253 153.635 128.56C153.942 128.853 154.328 129 154.795 129C155.448 129 155.915 128.707 156.195 128.12H160.375C160.202 128.893 159.862 129.587 159.355 130.2C158.862 130.8 158.235 131.273 157.475 131.62C156.715 131.967 155.875 132.14 154.955 132.14C153.848 132.14 152.862 131.907 151.995 131.44C151.142 130.973 150.468 130.307 149.975 129.44C149.495 128.573 149.255 127.553 149.255 126.38C149.255 125.207 149.495 124.193 149.975 123.34C150.455 122.473 151.122 121.807 151.975 121.34C152.842 120.873 153.835 120.64 154.955 120.64C156.062 120.64 157.042 120.867 157.895 121.32C158.748 121.773 159.415 122.427 159.895 123.28C160.375 124.12 160.615 125.113 160.615 126.26ZM156.615 125.28C156.615 124.8 156.455 124.427 156.135 124.16C155.815 123.88 155.415 123.74 154.935 123.74C154.455 123.74 154.062 123.873 153.755 124.14C153.448 124.393 153.248 124.773 153.155 125.28H156.615ZM166.739 122.76C167.179 122.12 167.713 121.613 168.339 121.24C168.966 120.867 169.639 120.68 170.359 120.68V124.86H169.259C168.406 124.86 167.773 125.027 167.359 125.36C166.946 125.693 166.739 126.273 166.739 127.1V132H162.819V120.78H166.739V122.76ZM176.085 128.74H180.865V132H171.765V128.9L176.225 124.04H171.805V120.78H180.705V123.88L176.085 128.74ZM186.889 126.38C186.889 125.22 187.096 124.207 187.509 123.34C187.936 122.473 188.516 121.807 189.249 121.34C189.983 120.873 190.796 120.64 191.689 120.64C192.409 120.64 193.049 120.793 193.609 121.1C194.183 121.393 194.629 121.8 194.949 122.32V117.2H198.889V132H194.949V130.44C194.643 130.96 194.209 131.373 193.649 131.68C193.089 131.987 192.429 132.14 191.669 132.14C190.776 132.14 189.963 131.907 189.229 131.44C188.509 130.973 187.936 130.307 187.509 129.44C187.096 128.56 186.889 127.54 186.889 126.38ZM194.969 126.38C194.969 125.66 194.769 125.093 194.369 124.68C193.983 124.267 193.503 124.06 192.929 124.06C192.343 124.06 191.856 124.267 191.469 124.68C191.083 125.08 190.889 125.647 190.889 126.38C190.889 127.1 191.083 127.673 191.469 128.1C191.856 128.513 192.343 128.72 192.929 128.72C193.503 128.72 193.983 128.513 194.369 128.1C194.769 127.687 194.969 127.113 194.969 126.38ZM201.083 126.38C201.083 125.22 201.29 124.207 201.703 123.34C202.13 122.473 202.703 121.807 203.423 121.34C204.156 120.873 204.97 120.64 205.863 120.64C206.636 120.64 207.303 120.793 207.863 121.1C208.423 121.407 208.856 121.82 209.163 122.34V120.78H213.083V132H209.163V130.44C208.856 130.96 208.416 131.373 207.843 131.68C207.283 131.987 206.623 132.14 205.863 132.14C204.97 132.14 204.156 131.907 203.423 131.44C202.703 130.973 202.13 130.307 201.703 129.44C201.29 128.56 201.083 127.54 201.083 126.38ZM209.163 126.38C209.163 125.66 208.963 125.093 208.563 124.68C208.176 124.267 207.696 124.06 207.123 124.06C206.536 124.06 206.05 124.267 205.663 124.68C205.276 125.08 205.083 125.647 205.083 126.38C205.083 127.1 205.276 127.673 205.663 128.1C206.05 128.513 206.536 128.72 207.123 128.72C207.696 128.72 208.176 128.513 208.563 128.1C208.963 127.687 209.163 127.113 209.163 126.38ZM223.257 120.68C224.55 120.68 225.577 121.113 226.337 121.98C227.097 122.833 227.477 123.993 227.477 125.46V132H223.557V125.98C223.557 125.34 223.39 124.84 223.057 124.48C222.724 124.107 222.277 123.92 221.717 123.92C221.13 123.92 220.67 124.107 220.337 124.48C220.004 124.84 219.837 125.34 219.837 125.98V132H215.917V120.78H219.837V122.38C220.184 121.873 220.65 121.467 221.237 121.16C221.824 120.84 222.497 120.68 223.257 120.68ZM232.208 119.74C231.514 119.74 230.954 119.553 230.528 119.18C230.114 118.793 229.908 118.313 229.908 117.74C229.908 117.153 230.114 116.667 230.528 116.28C230.954 115.893 231.514 115.7 232.208 115.7C232.888 115.7 233.434 115.893 233.848 116.28C234.274 116.667 234.488 117.153 234.488 117.74C234.488 118.313 234.274 118.793 233.848 119.18C233.434 119.553 232.888 119.74 232.208 119.74ZM234.148 120.78V132H230.228V120.78H234.148ZM247.7 126.26C247.7 126.567 247.68 126.873 247.64 127.18H240.22C240.26 127.793 240.427 128.253 240.72 128.56C241.027 128.853 241.413 129 241.88 129C242.533 129 243 128.707 243.28 128.12H247.46C247.287 128.893 246.947 129.587 246.44 130.2C245.947 130.8 245.32 131.273 244.56 131.62C243.8 131.967 242.96 132.14 242.04 132.14C240.933 132.14 239.947 131.907 239.08 131.44C238.227 130.973 237.553 130.307 237.06 129.44C236.58 128.573 236.34 127.553 236.34 126.38C236.34 125.207 236.58 124.193 237.06 123.34C237.54 122.473 238.207 121.807 239.06 121.34C239.927 120.873 240.92 120.64 242.04 120.64C243.147 120.64 244.127 120.867 244.98 121.32C245.833 121.773 246.5 122.427 246.98 123.28C247.46 124.12 247.7 125.113 247.7 126.26ZM243.7 125.28C243.7 124.8 243.54 124.427 243.22 124.16C242.9 123.88 242.5 123.74 242.02 123.74C241.54 123.74 241.147 123.873 240.84 124.14C240.533 124.393 240.333 124.773 240.24 125.28H243.7Z" fill="black"/>
<defs>
<filter id="filter0_d_1_94" x="0" y="0" width="344" height="474" filterUnits="userSpaceOnUse" color-interpolation-filters="sRGB">
<feFlood flood-opacity="0" result="BackgroundImageFix"/>
<feColorMatrix in="SourceAlpha" type="matrix" values="0 0 0 0 0 0 0 0 0 0 0 0 0 0 0 0 0 0 127 0" result="hardAlpha"/>
<feMorphology radius="5" operator="dilate" in="SourceAlpha" result="effect1_dropShadow_1_94"/>
<feOffset/>
<feGaussianBlur stdDeviation="11"/>
<feComposite in2="hardAlpha" operator="out"/>
<feColorMatrix type="matrix" values="0 0 0 0 0 0 0 0 0 0 0 0 0 0 0 0 0 0 0.25 0"/>
<feBlend mode="normal" in2="BackgroundImageFix" result="effect1_dropShadow_1_94"/>
<feBlend mode="normal" in="SourceGraphic" in2="effect1_dropShadow_1_94" result="shape"/>
</filter>
<clipPath id="clip0_1_94">
<rect width="251" height="202" fill="white" transform="translate(46 170)"/>
</clipPath>
</defs>
</svg>
